<svg width="3625" height="4045" viewBox="0 0 3625 4045" fill="none" xmlns="http://www.w3.org/2000/svg">
<path d="M1812.94 258.973C1812.2 261.556 1811.86 263.461 1811.89 264.687C1812.42 282.055 1812.53 304.213 1812.23 331.162C1812.12 340.553 1812.79 349.699 1814.24 358.6C1812.28 363.107 1810.71 366.313 1809.52 368.218C1799.99 383.55 1784.79 409.046 1763.89 444.707C1742.88 480.537 1727.65 506.024 1718.21 521.167C1693.94 560.166 1669 601.645 1643.39 645.603C1626.05 675.333 1599.12 715.275 1582.23 745.033C1564.5 776.225 1549.58 801.334 1537.45 820.362C1501.47 876.824 1465.29 939.961 1420.62 1012.91C1402.78 1042.07 1384.92 1071.6 1367.02 1101.51L1182.73 1096.87C1185.01 1089.57 1187.92 1083.57 1191.47 1078.85C1198.88 1068.99 1206.26 1059.12 1213.62 1049.23C1214.82 1047.59 1216.09 1045.98 1217.41 1044.4C1237.23 1020.37 1256.87 996.271 1276.33 972.095L1437.14 764.976C1437.34 764.732 1437.47 764.448 1437.54 764.145C1437.61 763.842 1437.61 763.527 1437.54 763.224C1437.48 762.92 1437.34 762.636 1437.15 762.391C1436.96 762.146 1436.71 761.946 1436.44 761.807C1400.23 743.326 1355.74 719.612 1302.98 690.665C1270.42 672.787 1235.43 656.239 1206.04 640.37C1187.48 630.328 1170.9 619.947 1152.97 610.499C1129.59 598.147 1104.67 585.417 1078.23 572.311C1077.95 572.165 1077.63 572.096 1077.31 572.108C1076.99 572.121 1076.68 572.216 1076.41 572.383C1076.14 572.551 1075.91 572.786 1075.75 573.065C1075.6 573.345 1075.52 573.66 1075.52 573.98L1072.49 1423.11C1060.8 1429.29 1049.09 1435.53 1037.36 1441.81C1013.09 1454.78 989.478 1468.85 966.528 1484.01C958.872 1489.06 943.332 1498.29 919.911 1511.68C917.761 1510.92 916.007 1509.83 914.649 1508.39C914.032 1507.74 913.696 1506.87 913.716 1505.96C913.923 1496.14 914.772 1486.29 916.261 1476.43C918.609 1461.07 918.128 1444.63 920.703 1427.61C925.304 1396.9 928.642 1366.16 930.716 1335.36L962.681 1066.04L970.856 993.084L1025.39 484.903C1025.41 484.702 1025.48 484.507 1025.59 484.337C1025.69 484.166 1025.84 484.024 1026.02 483.921C1026.2 483.819 1026.4 483.76 1026.6 483.749C1026.81 483.737 1027.01 483.774 1027.2 483.856C1068.7 501.932 1119.36 521.846 1162.93 541.28C1216.59 565.211 1260.01 581.957 1317.52 607.302C1340.54 617.467 1389.57 638.447 1464.61 670.241C1475.42 674.824 1485.15 680.199 1495.84 684.47C1496.23 684.624 1496.66 684.646 1497.06 684.534C1497.46 684.421 1497.82 684.18 1498.07 683.848C1577.68 577.403 1652.64 475.116 1767.94 317.64C1783.1 296.906 1795.49 278.632 1809.46 259.227C1809.99 258.473 1810.54 258.067 1811.1 258.011C1811.82 257.935 1812.43 258.256 1812.94 258.973Z" fill="#1D6E33"/>
<path d="M2121.75 681.641C2090.37 696.219 2059.27 708.957 2028.43 719.857C2018.61 704.054 2009.49 688.138 2001.08 672.109C1995.18 660.85 1990.14 652.373 1985.97 646.678C1979.92 638.381 1974.87 629.876 1970.81 621.163C1962.16 602.522 1948.8 584.05 1939.87 566.512C1928.18 543.656 1916.16 526.712 1901.54 504.167C1894.43 493.21 1887.96 482.423 1882.13 471.806C1875.59 459.85 1868.87 449.186 1861.99 439.813C1855.03 430.365 1850 418.57 1844.65 409.716C1829.13 384.05 1818.99 367.011 1814.24 358.6C1812.79 349.699 1812.12 340.553 1812.23 331.162C1812.53 304.213 1812.42 282.055 1811.89 264.687C1811.86 263.461 1812.2 261.556 1812.94 258.973L2121.75 681.641Z" fill="#C1964A"/>
<path d="M1814.24 358.598C1818.99 367.008 1829.13 384.047 1844.65 409.713C1850 418.567 1855.03 430.363 1861.99 439.81C1868.87 449.183 1875.59 459.847 1882.13 471.803C1887.96 482.421 1894.43 493.207 1901.54 504.164C1916.16 526.709 1928.18 543.653 1939.87 566.509C1948.8 584.047 1962.16 602.519 1970.81 621.16C1974.87 629.873 1979.92 638.378 1985.97 646.675C1990.14 652.371 1995.18 660.847 2001.08 672.106C2009.49 688.135 2018.61 704.052 2028.43 719.855C1953.58 751.254 1878.57 781.974 1803.27 812.241C1795.55 815.334 1789.63 817.361 1785.5 818.323L1971.86 716.46C1972.16 716.297 1972.42 716.075 1972.63 715.808C1972.84 715.54 1972.99 715.233 1973.08 714.903C1973.17 714.574 1973.19 714.229 1973.15 713.889C1973.1 713.549 1972.99 713.221 1972.82 712.924L1817.21 452.794C1817.08 452.572 1816.89 452.387 1816.66 452.259C1816.44 452.131 1816.18 452.064 1815.92 452.064C1815.67 452.064 1815.41 452.131 1815.18 452.259C1814.96 452.387 1814.77 452.572 1814.64 452.794C1802.68 473.331 1792.22 490.709 1783.27 504.928C1768.16 528.859 1757.55 546.161 1751.44 556.835C1713.91 622.377 1681.4 671.625 1648.08 729.614C1621.49 775.892 1588.34 826.271 1566.13 865.053C1559.4 876.802 1551.67 889.88 1542.94 904.288C1503.07 970.046 1463.38 1036.6 1423.88 1103.94L1367.02 1101.51C1384.92 1071.6 1402.78 1042.07 1420.62 1012.91C1465.29 939.958 1501.47 876.821 1537.45 820.359C1549.58 801.332 1564.5 776.222 1582.23 745.03C1599.12 715.272 1626.05 675.331 1643.39 645.601C1669 601.642 1693.94 560.163 1718.21 521.165C1727.65 506.022 1742.88 480.535 1763.89 444.704C1784.79 409.043 1799.99 383.547 1809.52 368.215C1810.71 366.311 1812.28 363.105 1814.24 358.598Z" fill="#DDB861"/>
<path d="M1785.5 818.325C1756.25 831.139 1728.25 842.369 1696.06 852.892C1675.27 859.7 1655.14 868.328 1635.66 878.775C1635.31 878.959 1635.04 879.261 1634.88 879.632C1634.73 880.002 1634.7 880.419 1634.81 880.812C1634.95 881.321 1635.17 881.774 1635.49 882.17L1585.71 900.585C1585.46 900.678 1585.24 900.842 1585.08 901.055C1584.92 901.269 1584.83 901.523 1584.81 901.789C1584.79 902.054 1584.85 902.319 1584.98 902.552C1585.11 902.785 1585.3 902.976 1585.54 903.102C1615.49 919.141 1650.97 943.553 1674.5 957.301C1736.76 993.565 1786.63 1026.92 1856.25 1073.82C1870.13 1083.15 1886.06 1094.42 1904.05 1107.62C1935.88 1130.96 1961.05 1147.99 1989.14 1170.39C2000.93 1179.8 2013.3 1189.57 2026.25 1199.69C2026.46 1199.85 2026.6 1200.07 2026.66 1200.33C2026.71 1200.58 2026.67 1200.84 2026.55 1201.07C2026.43 1201.29 2026.23 1201.47 2025.98 1201.56C2025.74 1201.65 2025.48 1201.65 2025.23 1201.56C2014.13 1197.58 2004.45 1194.5 1996.21 1192.31C1969.09 1185.11 1938.19 1177.27 1903.51 1168.8C1849.12 1155.54 1800.01 1148.41 1733.76 1136.76C1684.51 1128.1 1623.47 1121.88 1569.61 1115.4C1542.23 1112.1 1493.65 1108.28 1423.88 1103.94C1463.38 1036.6 1503.07 970.049 1542.94 904.29C1551.67 889.883 1559.4 876.804 1566.13 865.056C1588.34 826.274 1621.49 775.894 1648.08 729.616C1681.4 671.627 1713.9 622.379 1751.44 556.837C1757.55 546.164 1768.16 528.861 1783.27 504.93C1792.22 490.711 1802.68 473.333 1814.64 452.797C1814.77 452.574 1814.96 452.39 1815.18 452.262C1815.41 452.134 1815.66 452.066 1815.92 452.066C1816.18 452.066 1816.44 452.134 1816.66 452.262C1816.89 452.39 1817.08 452.574 1817.21 452.797L1972.82 712.927C1972.99 713.224 1973.1 713.552 1973.15 713.891C1973.19 714.231 1973.17 714.576 1973.08 714.906C1972.99 715.235 1972.84 715.543 1972.63 715.81C1972.42 716.077 1972.15 716.299 1971.86 716.463L1785.5 818.325Z" fill="#04A03C"/>
<path d="M2668.26 994.356L2578.28 981.542C2575.75 926.193 2574.53 870.731 2574.6 815.156C2574.64 782.852 2574.2 757.695 2573.27 739.685C2572.22 719.431 2571.3 694.275 2570.53 664.215C2569.93 640.189 2571.42 618.021 2575 597.711C2575.71 593.713 2574.86 585.51 2572.42 573.101C2574.08 568.99 2575.91 565.379 2577.91 562.267C2578.34 561.609 2578.71 560.917 2579.02 560.202C2590.08 533.914 2602.47 508.418 2616.16 483.713C2616.7 482.714 2616.63 481.771 2615.93 480.885C2615.72 480.621 2615.39 480.611 2614.94 480.856C2617.17 479.989 2618.35 480.432 2618.5 482.186C2621.07 513.698 2623.86 545.172 2626.88 576.609C2638.61 698.471 2651.03 820.257 2664.16 941.968C2665.2 951.68 2666.56 969.142 2668.26 994.356Z" fill="#DDB861"/>
<path d="M2614.94 480.857C2615.39 480.612 2615.72 480.621 2615.93 480.885C2616.63 481.771 2616.7 482.714 2616.16 483.714C2602.47 508.418 2590.09 533.914 2579.02 560.203C2578.71 560.918 2578.35 561.609 2577.91 562.268C2575.91 565.379 2574.08 568.991 2572.42 573.102C2558.41 580.947 2544.08 588.414 2529.43 595.505C2502.89 608.348 2482.16 619.04 2460.75 631.119C2434.74 645.791 2408.08 659.236 2380.78 671.456C2366.11 678.019 2342.26 690.211 2309.24 708.032C2264.26 732.303 2219.88 754.678 2180.42 773.715C2164.13 781.598 2145.08 791.395 2123.28 803.106C2083.22 824.642 2035.76 849.167 1980.88 876.681C1961.49 886.393 1942.53 896.312 1923.99 906.439C1892.54 923.581 1861.99 938.064 1828.41 955.8C1815.59 962.552 1802.77 969.218 1789.97 975.8C1763.59 959.883 1737.86 943.618 1712.77 927.004C1698.71 917.688 1672.95 902.743 1635.49 882.169C1635.17 881.773 1634.95 881.32 1634.81 880.811C1634.7 880.418 1634.73 880.001 1634.88 879.631C1635.04 879.26 1635.31 878.958 1635.66 878.774C1655.14 868.327 1675.27 859.699 1696.06 852.891C1728.25 842.368 1756.25 831.138 1785.5 818.324C1789.63 817.362 1795.55 815.335 1803.26 812.242C1878.57 781.975 1953.58 751.255 2028.43 719.856C2059.26 708.956 2090.37 696.217 2121.75 681.64L2614.94 480.857Z" fill="#1D6E33"/>
<path d="M1276.33 972.094C1275.56 971.207 1275.6 970.067 1276.47 968.671C1312.13 910.89 1348.42 851.288 1385.32 789.867C1385.46 789.637 1385.55 789.381 1385.59 789.114C1385.63 788.847 1385.61 788.576 1385.54 788.317C1385.46 788.057 1385.34 787.815 1385.17 787.605C1385 787.395 1384.8 787.221 1384.56 787.095L1126.58 650.156C1126.32 650.02 1126.03 649.952 1125.74 649.961C1125.45 649.969 1125.16 650.053 1124.91 650.203C1124.66 650.354 1124.45 650.567 1124.31 650.821C1124.16 651.076 1124.09 651.363 1124.09 651.655L1122.45 1394L1072.49 1423.11L1075.52 573.978C1075.52 573.658 1075.6 573.343 1075.75 573.064C1075.91 572.784 1076.14 572.549 1076.41 572.382C1076.68 572.214 1076.99 572.12 1077.31 572.107C1077.63 572.094 1077.95 572.164 1078.23 572.309C1104.67 585.416 1129.59 598.145 1152.97 610.497C1170.9 619.945 1187.48 630.327 1206.04 640.369C1235.43 656.238 1270.42 672.786 1302.98 690.664C1355.74 719.611 1400.23 743.325 1436.44 761.806C1436.71 761.945 1436.96 762.144 1437.15 762.389C1437.34 762.634 1437.48 762.919 1437.54 763.222C1437.61 763.526 1437.61 763.84 1437.54 764.143C1437.47 764.446 1437.34 764.73 1437.14 764.974L1276.33 972.094Z" fill="#DDB861"/>
<path d="M2572.42 573.102C2574.86 585.51 2575.71 593.714 2575 597.711C2571.41 618.022 2569.92 640.19 2570.53 664.215C2571.3 694.275 2572.22 719.432 2573.27 739.685C2574.2 757.695 2574.64 782.852 2574.6 815.156C2574.53 870.731 2575.75 926.193 2578.28 981.542L2327.8 944.74C2327.96 944.551 2328.07 944.335 2328.11 944.089C2328.11 944.027 2328.14 943.969 2328.19 943.927C2328.24 943.886 2328.3 943.863 2328.36 943.863L2528.3 952.689C2528.58 952.705 2528.87 952.661 2529.13 952.561C2529.4 952.46 2529.65 952.306 2529.85 952.106C2530.05 951.907 2530.22 951.667 2530.32 951.402C2530.43 951.137 2530.48 950.853 2530.47 950.567L2523.68 654.654C2523.68 654.336 2523.6 654.025 2523.44 653.749C2523.28 653.473 2523.06 653.242 2522.78 653.078C2522.51 652.914 2522.2 652.822 2521.88 652.81C2521.57 652.799 2521.25 652.869 2520.97 653.013C2478.99 673.748 2445.24 690.041 2410.99 709.588C2401.28 715.132 2391.61 720.328 2381.99 725.174C2324.51 754.169 2283.86 774.196 2224.91 805.736C2188.37 825.292 2154.05 842.981 2121.98 858.803C2090.94 874.116 2063.95 887.873 2041.02 900.074C2001.59 921.064 1947.02 948.361 1898.85 973.904C1878.59 984.653 1858.13 995.384 1837.46 1006.1L1789.97 975.8C1802.77 969.218 1815.59 962.552 1828.41 955.8C1861.99 938.064 1892.54 923.581 1923.99 906.439C1942.53 896.312 1961.49 886.393 1980.88 876.681C2035.76 849.167 2083.22 824.642 2123.28 803.106C2145.08 791.395 2164.12 781.598 2180.42 773.715C2219.88 754.678 2264.26 732.302 2309.24 708.032C2342.26 690.211 2366.11 678.019 2380.78 671.456C2408.08 659.236 2434.74 645.79 2460.75 631.119C2482.16 619.04 2502.89 608.348 2529.43 595.505C2544.08 588.414 2558.41 580.947 2572.42 573.102Z" fill="#C1964A"/>
<path d="M1276.33 972.095C1256.87 996.271 1237.23 1020.37 1217.41 1044.4C1216.09 1045.98 1214.82 1047.59 1213.62 1049.23C1206.26 1059.12 1198.88 1068.99 1191.47 1078.85C1187.92 1083.57 1185.01 1089.57 1182.73 1096.87L1150.42 1140.66C1150.34 1140.77 1150.29 1140.91 1150.28 1141.05C1150.26 1141.19 1150.29 1141.33 1150.36 1141.46C1150.42 1141.59 1150.52 1141.69 1150.64 1141.76C1150.76 1141.84 1150.9 1141.88 1151.04 1141.88C1239.88 1143.06 1319.77 1145.29 1390.69 1148.55C1431.82 1150.44 1495.42 1155.2 1581.49 1162.84C1599.33 1164.42 1614.02 1166.08 1625.56 1167.81C1644.46 1170.66 1659.06 1172.67 1669.38 1173.84C1669.55 1173.86 1669.72 1173.93 1669.86 1174.03C1670 1174.14 1670.11 1174.27 1670.18 1174.43C1670.25 1174.59 1670.27 1174.76 1670.25 1174.93C1670.23 1175.1 1670.16 1175.26 1670.06 1175.4C1669.74 1175.83 1669.04 1176.17 1667.97 1176.41C1643.07 1181.7 1618.18 1189.71 1587.77 1197.8C1557.73 1205.79 1527.29 1215.54 1496.46 1227.02C1467.4 1237.84 1449.74 1244.44 1443.48 1246.82C1400.71 1262.98 1375.53 1272.86 1367.95 1276.47C1357.94 1281.24 1324.87 1296.07 1268.75 1320.96C1234.49 1336.18 1202.41 1353.94 1167 1371.37C1152.16 1378.67 1137.31 1386.21 1122.45 1394L1124.09 651.656C1124.09 651.364 1124.16 651.077 1124.31 650.822C1124.45 650.568 1124.66 650.355 1124.91 650.204C1125.16 650.053 1125.44 649.97 1125.74 649.962C1126.03 649.953 1126.32 650.021 1126.58 650.157L1384.56 787.096C1384.79 787.222 1385 787.396 1385.17 787.606C1385.34 787.816 1385.46 788.058 1385.53 788.318C1385.61 788.577 1385.62 788.848 1385.59 789.115C1385.55 789.381 1385.46 789.638 1385.32 789.868C1348.41 851.289 1312.13 910.89 1276.47 968.672C1275.6 970.067 1275.55 971.208 1276.33 972.095Z" fill="#04A03C"/>
<path d="M2327.8 944.739C2317.5 944.475 2307.22 943.514 2296.96 941.854C2253.66 934.839 2235.61 932.746 2203.81 925.815C2193.74 923.628 2182.25 921.619 2169.33 919.79C2160.54 918.564 2151.44 918.3 2142.03 918.998L2088.15 911.728C2087.85 911.687 2087.55 911.731 2087.28 911.855C2087.01 911.979 2086.78 912.178 2086.62 912.428C2086.46 912.678 2086.38 912.968 2086.38 913.265C2086.38 913.563 2086.46 913.854 2086.62 914.104C2124.39 973.658 2161.74 1035.23 2198.67 1098.82C2205.51 1110.63 2223.94 1143.59 2253.97 1197.71C2269 1224.81 2281.92 1249.77 2292.75 1272.59C2309.4 1307.74 2321.65 1333.03 2329.49 1348.46C2336.58 1362.39 2341.34 1372.51 2343.75 1378.81C2351.71 1399.63 2363.72 1429.74 2379.79 1469.16C2379.88 1469.36 2379.9 1469.59 2379.83 1469.8C2379.76 1470.01 2379.61 1470.19 2379.42 1470.3C2379.22 1470.41 2378.99 1470.45 2378.77 1470.4C2378.55 1470.36 2378.34 1470.24 2378.2 1470.06C2364.31 1452.32 2352.33 1438.09 2342.28 1427.38C2322.1 1405.88 2308.34 1391 2300.98 1382.74C2285.93 1365.85 2268.37 1348.03 2255.52 1336.15C2225.01 1307.92 2192.47 1278.63 2157.9 1248.29C2130.83 1224.5 2109.14 1209.57 2080.74 1184.7C2054.74 1161.96 2021.87 1139.5 1995.34 1118.62C1968.09 1097.18 1946.14 1080.83 1929.48 1069.57C1906.93 1054.33 1887.91 1041.27 1872.43 1030.37C1863.55 1024.11 1848.72 1015.23 1837.46 1006.09C1858.13 995.383 1878.59 984.653 1898.85 973.904C1947.02 948.36 2001.59 921.063 2041.02 900.074C2063.95 887.873 2090.94 874.116 2121.98 858.803C2154.06 842.981 2188.37 825.292 2224.92 805.736C2283.87 774.195 2324.52 754.168 2382 725.174C2391.61 720.327 2401.28 715.132 2410.99 709.587C2445.25 690.041 2478.99 673.747 2520.97 653.013C2521.25 652.868 2521.57 652.798 2521.89 652.81C2522.2 652.821 2522.51 652.913 2522.78 653.078C2523.06 653.242 2523.28 653.473 2523.44 653.748C2523.6 654.024 2523.68 654.336 2523.69 654.653L2530.48 950.567C2530.48 950.852 2530.43 951.137 2530.33 951.402C2530.22 951.666 2530.06 951.906 2529.85 952.106C2529.65 952.305 2529.4 952.46 2529.14 952.56C2528.87 952.66 2528.58 952.704 2528.3 952.688L2328.36 943.863C2328.3 943.862 2328.24 943.885 2328.19 943.927C2328.14 943.969 2328.11 944.026 2328.11 944.089C2328.07 944.334 2327.97 944.551 2327.8 944.739Z" fill="#04A03C"/>
<path d="M1635.49 882.168C1672.94 902.742 1698.71 917.687 1712.77 927.003C1737.85 943.617 1763.59 959.883 1789.97 975.799L1837.46 1006.09C1848.72 1015.23 1863.54 1024.11 1872.43 1030.37C1887.91 1041.27 1906.93 1054.33 1929.48 1069.57C1946.13 1080.83 1968.09 1097.18 1995.34 1118.62C2021.87 1139.5 2054.74 1161.96 2080.73 1184.7C2109.14 1209.57 2130.83 1224.5 2157.9 1248.29C2192.47 1278.63 2225.01 1307.92 2255.52 1336.15C2268.36 1348.03 2285.93 1365.85 2300.98 1382.74C2308.33 1391 2322.1 1405.88 2342.28 1427.38C2352.33 1438.09 2364.31 1452.32 2378.2 1470.06C2378.34 1470.24 2378.54 1470.36 2378.77 1470.4C2378.99 1470.45 2379.22 1470.41 2379.42 1470.3C2379.61 1470.19 2379.76 1470.01 2379.83 1469.8C2379.89 1469.59 2379.88 1469.36 2379.79 1469.16C2363.72 1429.74 2351.71 1399.63 2343.75 1378.81C2341.34 1372.51 2336.58 1362.39 2329.49 1348.46C2321.65 1333.03 2309.4 1307.74 2292.75 1272.59C2281.92 1249.77 2269 1224.81 2253.97 1197.71C2223.94 1143.59 2205.51 1110.63 2198.66 1098.82C2161.74 1035.23 2124.39 973.658 2086.62 914.104C2086.46 913.854 2086.37 913.563 2086.38 913.265C2086.38 912.968 2086.46 912.678 2086.62 912.428C2086.78 912.178 2087.01 911.979 2087.28 911.855C2087.55 911.731 2087.85 911.687 2088.15 911.728L2142.03 918.998C2152.16 938.007 2167.75 960.92 2175.36 973.366C2191.68 1000.13 2208.51 1026.32 2223.73 1054.07C2229.23 1064.12 2234.77 1073.84 2240.33 1083.23C2249.06 1100.51 2258.51 1116.2 2268.68 1130.3C2288.76 1169.1 2308.85 1207.25 2328.96 1244.75C2337.61 1260.9 2343.4 1272.14 2346.32 1278.47C2383.27 1358.24 2399.93 1391.99 2422.11 1451.62C2435.02 1486.26 2445.95 1516.36 2454.89 1541.91C2463.72 1567.14 2476.44 1610.08 2493.05 1670.73C2493.2 1671.28 2493.4 1671.58 2493.64 1671.64C2493.94 1671.69 2494.25 1671.63 2494.51 1671.45C2494.76 1671.28 2494.94 1671.01 2495 1670.7C2505.98 1610.85 2513.02 1544.2 2518.57 1493.15C2521.6 1464.95 2524.31 1429.97 2526.68 1388.2C2530.19 1326.02 2532.25 1263.99 2532.85 1202.1C2532.85 1201.92 2532.9 1201.75 2533 1201.6C2533.09 1201.45 2533.22 1201.33 2533.38 1201.25C2533.54 1201.17 2533.72 1201.14 2533.89 1201.15C2534.07 1201.17 2534.24 1201.23 2534.38 1201.33L2573.84 1230.87C2576.57 1232.19 2577.89 1234.72 2577.8 1238.47C2576.4 1295.94 2574.28 1352.26 2571.43 1407.43L2567.62 1462.09C2565.56 1483.6 2563.51 1504.76 2561.48 1525.56C2554.37 1598.05 2542.69 1669.91 2526.46 1741.14C2516.67 1784.11 2503.52 1825.29 2492 1868.29C2483.69 1899.27 2471.72 1931.68 2461.11 1963.17C2450.99 1993.26 2430.93 2039.66 2419.84 2072.38C2419.8 2072.53 2419.81 2072.68 2419.86 2072.82C2419.92 2072.96 2420.01 2073.09 2420.14 2073.17C2420.26 2073.25 2420.41 2073.29 2420.56 2073.28C2420.71 2073.27 2420.86 2073.22 2420.97 2073.12C2422.44 2071.78 2423.87 2070.29 2425.25 2068.65C2442.69 2047.66 2463.6 2020.91 2487.99 1988.4C2510.67 1958.19 2529.82 1929.45 2550.56 1901.9C2558.21 1891.69 2576.59 1863.52 2605.69 1817.37C2614.66 1803.17 2626.14 1787.7 2633.38 1775.37C2664.63 1722.24 2682.65 1691.81 2687.44 1684.06C2703.06 1658.85 2714.17 1636.9 2731.65 1606.29C2732.03 1605.63 2732.49 1605.29 2733.04 1605.25C2734 1605.17 2734.66 1605.57 2735.02 1606.44C2742.36 1624.28 2748.36 1641.81 2753.04 1659.05C2724.62 1710.72 2704.2 1746.34 2691.77 1765.89C2679.91 1784.52 2668.21 1803.11 2656.66 1821.65L2627.5 1868.8C2606.55 1899.41 2586.22 1929.18 2566.51 1958.13C2545.33 1989.25 2509.84 2035.83 2460.04 2097.87C2447.06 2114.03 2434.06 2129.3 2421.03 2143.67C2398.91 2168.02 2375.8 2197.02 2349.77 2222.33C2316.02 2255.13 2294.42 2276.1 2284.97 2285.25C2265.66 2303.93 2247.95 2319.83 2231.85 2332.94C2204.48 2355.23 2185.77 2369.95 2175.72 2377.09C2147.72 2397.01 2115.24 2418.86 2078.27 2442.64C2078.15 2442.69 2078.05 2442.8 2078.01 2442.92C2077.96 2443.05 2077.96 2443.19 2078.02 2443.32C2078.08 2443.44 2078.18 2443.54 2078.31 2443.58C2078.43 2443.63 2078.57 2443.63 2078.7 2443.57C2101.44 2437.38 2122.86 2431.26 2142.97 2425.21C2159.52 2420.21 2180.56 2412.9 2206.08 2403.26C2254.13 2385.08 2301.14 2365.83 2347.12 2345.5C2366.58 2336.88 2381.53 2329.69 2391.98 2323.94C2426.3 2305.07 2460.23 2286.89 2493.76 2269.41C2520.83 2255.32 2561.48 2228.19 2595.45 2208.36C2613.95 2197.59 2628.03 2188.82 2637.68 2182.05C2663.31 2164.12 2692.94 2144.16 2726.56 2122.17C2726.73 2122.06 2726.92 2122 2727.12 2122C2727.32 2122 2727.51 2122.05 2727.68 2122.15C2727.85 2122.26 2727.99 2122.41 2728.07 2122.59C2728.16 2122.76 2728.2 2122.96 2728.17 2123.16L2721.55 2177.67C2721.44 2178.63 2721.08 2179.56 2720.51 2180.36C2719.04 2182.41 2716.76 2184.28 2713.69 2185.96C2707.03 2189.63 2698.33 2195.06 2687.58 2202.22C2639.15 2233.94 2605.77 2255.5 2587.42 2266.89C2578.72 2272.28 2559.58 2283.47 2529.99 2300.46L2481.79 2328.58C2429.44 2355.81 2388.51 2376.28 2359 2389.99C2322.54 2406.95 2290.8 2420.64 2263.75 2431.07C2250.68 2436.12 2223.24 2445.9 2181.41 2460.4C2148.09 2471.96 2120.27 2480.62 2097.96 2486.37C2061.15 2495.85 2022.65 2504.59 1982.46 2512.56C1962.68 2516.49 1942.93 2519.31 1923.2 2521.05C1920.37 2521.29 1916.48 2521.05 1911.52 2520.31C1864.54 2513.28 1811.84 2503.93 1753.42 2492.25C1694.09 2480.39 1635.21 2464.02 1576.77 2443.15C1575.54 2442.71 1574.73 2442.47 1574.34 2442.41C1574.02 2442.37 1573.69 2442.44 1573.41 2442.59C1573.13 2442.75 1572.9 2442.98 1572.75 2443.27C1572.61 2443.55 1572.56 2443.87 1572.61 2444.19C1572.66 2444.5 1572.81 2444.79 1573.03 2445.01C1576.28 2448.33 1580.91 2452.37 1586.92 2457.12C1639.63 2498.61 1687.16 2534.82 1729.52 2565.77C1745.04 2577.1 1764.4 2590.23 1787.59 2605.15C1809.32 2619.12 1832.4 2635.87 1850.96 2647.29C1905.38 2680.73 1957.72 2711.8 2007.98 2740.5C2008.2 2740.62 2008.37 2740.8 2008.49 2741.02C2008.61 2741.23 2008.67 2741.48 2008.66 2741.72C2008.65 2741.97 2008.57 2742.21 2008.43 2742.41C2008.29 2742.62 2008.09 2742.78 2007.87 2742.88L1958.39 2764.94C1917.04 2741.24 1876.27 2718.18 1837.21 2692.36C1825.88 2684.87 1814.59 2677.51 1803.35 2670.26L1756.08 2639.69C1701.26 2600.9 1644.8 2564.02 1593.03 2521.22C1574.36 2505.75 1544.01 2480.09 1501.98 2444.22C1484.57 2429.36 1468.14 2414.26 1452.67 2398.93C1403.77 2350.43 1375.95 2322.77 1369.2 2315.97C1361.14 2307.82 1335.79 2279.16 1293.13 2230C1264.87 2197.44 1240.18 2159.93 1215.34 2124.97C1215.24 2124.85 1215.11 2124.76 1214.95 2124.73C1214.8 2124.69 1214.64 2124.71 1214.5 2124.77C1214.36 2124.84 1214.24 2124.95 1214.17 2125.09C1214.1 2125.22 1214.07 2125.38 1214.1 2125.54C1226.32 2173.48 1242.67 2214.73 1263.34 2271.27C1273 2297.69 1284.82 2326.29 1298.79 2357.07C1327.76 2420.83 1339.52 2448.15 1365.69 2495.34C1381.53 2523.88 1398.84 2559.83 1416.24 2589.48C1448 2643.56 1481.26 2697.49 1516.04 2751.25C1516.14 2751.41 1516.19 2751.59 1516.2 2751.78C1516.2 2751.97 1516.15 2752.15 1516.05 2752.31C1515.95 2752.47 1515.81 2752.6 1515.64 2752.68C1515.48 2752.76 1515.29 2752.8 1515.1 2752.78L1461.07 2747.88L1379.46 2616.32C1376.64 2609.36 1373.17 2602.81 1369.05 2596.66C1361.62 2585.59 1355.23 2574.9 1349.88 2564.58C1339.3 2545.33 1329.34 2526.17 1320 2507.1C1306.5 2479.57 1297.01 2460.55 1291.52 2450.05C1280.69 2429.32 1271.62 2410.12 1264.31 2392.43C1251.46 2361.46 1245.03 2345.94 1245.01 2345.87C1233.13 2319.9 1223.55 2296.99 1216.27 2277.13C1209.24 2257.89 1196.3 2220.52 1177.46 2165.02C1171.45 2147.28 1165.51 2126.86 1159.64 2103.75C1147.93 2057.39 1138.51 2025.6 1131.41 1985.23C1130.54 1980.22 1130.76 1976.43 1131.19 1971.12C1134.61 1929.87 1141.71 1885.86 1147.65 1840.12C1155.61 1778.94 1165.89 1713.86 1178.48 1644.88C1178.5 1644.73 1178.47 1644.57 1178.39 1644.44C1178.32 1644.31 1178.2 1644.21 1178.06 1644.15C1177.92 1644.08 1177.77 1644.07 1177.62 1644.11C1177.47 1644.14 1177.34 1644.22 1177.24 1644.34C1160.3 1666.57 1149.23 1681.01 1144.03 1687.65C1124.91 1712.17 1105.16 1742.04 1085.53 1769.14C1058.54 1806.43 1028.65 1853.86 1008.65 1883.34C993.654 1905.44 978.709 1928.98 963.811 1953.95C947.744 1980.87 917.25 2028.4 895.95 2068.31C895.837 2068.52 895.667 2068.7 895.458 2068.81C895.249 2068.93 895.011 2068.98 894.772 2068.97C894.534 2068.95 894.304 2068.87 894.112 2068.73C893.919 2068.59 893.772 2068.39 893.687 2068.17L875.668 2021.33C875.354 2020.5 875.205 2019.62 875.229 2018.75C875.253 2017.87 875.45 2017 875.809 2016.21L880.901 2005.03C914.365 1946.65 938.154 1909.51 967.771 1862.18C968.431 1861.11 969.101 1859.85 969.779 1858.42L999.849 1812.17C1020.03 1784.15 1039.87 1755.86 1059.37 1727.31C1071.77 1709.15 1083.35 1692.94 1094.1 1678.68C1119.65 1644.85 1137.64 1617.16 1166.86 1581.57C1196.02 1546.13 1223.52 1506.13 1254.46 1469.36C1264.93 1456.93 1275 1444.43 1284.67 1431.87C1315.87 1391.34 1348.8 1354.79 1377.4 1324.98C1377.54 1324.83 1377.64 1324.66 1377.69 1324.47C1377.75 1324.28 1377.76 1324.08 1377.72 1323.88C1377.68 1323.69 1377.6 1323.5 1377.47 1323.34C1377.35 1323.18 1377.19 1323.06 1377 1322.97C1376.59 1322.78 1376.09 1322.8 1375.5 1323.03C1367.21 1326.17 1349.89 1333.93 1323.57 1346.28C1280.74 1366.36 1247.11 1380.53 1217.07 1396.49C1189.5 1411.16 1168.63 1422.1 1154.47 1429.3C1121.97 1445.82 1101.21 1456.89 1092.18 1462.51C1066.83 1478.24 1000.5 1514.16 957.588 1541.15C932.582 1556.86 915.251 1567.59 905.596 1573.34C905.419 1573.44 905.219 1573.49 905.016 1573.48C904.814 1573.48 904.617 1573.41 904.448 1573.3C904.278 1573.19 904.142 1573.04 904.056 1572.85C903.969 1572.67 903.934 1572.47 903.955 1572.26L910.319 1519.68C910.399 1519.06 910.613 1518.46 910.945 1517.94C911.278 1517.41 911.72 1516.96 912.243 1516.62L919.909 1511.67C943.331 1498.28 958.87 1489.06 966.526 1484.01C989.477 1468.85 1013.09 1454.78 1037.36 1441.8C1049.09 1435.52 1060.8 1429.29 1072.49 1423.11L1122.45 1394C1137.31 1386.21 1152.16 1378.67 1167 1371.37C1202.41 1353.94 1234.49 1336.18 1268.75 1320.96C1324.87 1296.07 1357.94 1281.24 1367.95 1276.46C1375.53 1272.86 1400.71 1262.98 1443.48 1246.82C1449.74 1244.44 1467.4 1237.84 1496.46 1227.02C1527.29 1215.53 1557.73 1205.79 1587.77 1197.8C1618.18 1189.71 1643.07 1181.7 1667.97 1176.41C1669.04 1176.17 1669.74 1175.83 1670.06 1175.39C1670.17 1175.26 1670.23 1175.1 1670.25 1174.93C1670.27 1174.76 1670.25 1174.59 1670.18 1174.43C1670.11 1174.27 1670 1174.14 1669.86 1174.03C1669.72 1173.93 1669.55 1173.86 1669.38 1173.84C1659.07 1172.67 1644.46 1170.66 1625.56 1167.81C1614.02 1166.08 1599.33 1164.42 1581.49 1162.83C1495.42 1155.2 1431.82 1150.44 1390.69 1148.55C1319.77 1145.29 1239.89 1143.06 1151.04 1141.87C1150.9 1141.87 1150.76 1141.84 1150.64 1141.76C1150.52 1141.69 1150.42 1141.58 1150.36 1141.46C1150.29 1141.33 1150.26 1141.19 1150.28 1141.05C1150.29 1140.91 1150.34 1140.77 1150.42 1140.66L1182.73 1096.87L1367.02 1101.51L1423.88 1103.94C1493.65 1108.28 1542.23 1112.1 1569.61 1115.4C1623.47 1121.87 1684.51 1128.1 1733.76 1136.75C1800.01 1148.41 1849.12 1155.54 1903.51 1168.8C1938.19 1177.27 1969.09 1185.11 1996.21 1192.31C2004.45 1194.5 2014.13 1197.58 2025.23 1201.56C2025.48 1201.65 2025.74 1201.65 2025.98 1201.56C2026.23 1201.47 2026.43 1201.29 2026.55 1201.07C2026.67 1200.84 2026.71 1200.58 2026.66 1200.32C2026.6 1200.07 2026.46 1199.85 2026.25 1199.69C2013.3 1189.57 2000.93 1179.8 1989.14 1170.39C1961.05 1147.98 1935.88 1130.95 1904.05 1107.62C1886.06 1094.42 1870.13 1083.15 1856.25 1073.81C1786.63 1026.91 1736.76 993.563 1674.5 957.299C1650.97 943.551 1615.49 919.139 1585.54 903.101C1585.3 902.974 1585.11 902.783 1584.98 902.55C1584.85 902.318 1584.79 902.053 1584.81 901.787C1584.83 901.522 1584.92 901.267 1585.08 901.053C1585.24 900.84 1585.46 900.677 1585.71 900.583L1635.49 882.168ZM1584.38 1271.23C1544 1287.34 1510.86 1304.99 1484.95 1324.19C1460.34 1342.42 1442.25 1356.43 1430.69 1366.22C1396.09 1395.49 1364.56 1429.18 1336.1 1467.29C1323.18 1484.58 1310.37 1505.44 1297.66 1529.86C1283.06 1557.96 1272.29 1580.01 1265.35 1596C1243.37 1646.66 1232.14 1704.59 1225.72 1759.95C1218.92 1818.68 1221.16 1877.29 1232.46 1935.78C1238.15 1965.32 1243.42 1988.1 1248.27 2004.13C1251.47 2014.78 1261.91 2041.02 1279.58 2082.85C1287.75 2102.18 1296.69 2119.24 1306.4 2134.02C1333.33 2174.95 1352.76 2206.3 1383.59 2235.94C1400.04 2251.73 1419.32 2270.01 1441.44 2290.79C1446.89 2295.94 1452.72 2300.88 1458.92 2305.61C1468.62 2313.02 1474.65 2317.44 1477.03 2318.85C1516.18 2342.16 1542.72 2357.14 1556.66 2363.8C1583.92 2376.85 1607.87 2387.35 1628.48 2395.31C1640 2399.74 1652.68 2403.3 1666.52 2405.98C1691.7 2410.84 1709.15 2414.1 1718.88 2415.76C1784.23 2426.97 1854.55 2424.9 1918.22 2413.73C1937.44 2410.35 1956.36 2405.74 1975 2399.89C2001.16 2392.34 2021.33 2384.11 2051.97 2372.06C2064.81 2366.99 2081.81 2358.32 2102.97 2346.06C2109.53 2342.27 2124.55 2332.27 2148.03 2316.05C2161.34 2306.87 2175.19 2296.19 2189.56 2284.03C2223.39 2255.35 2254.25 2224.65 2279.99 2190C2294.93 2169.9 2309.28 2148.13 2323.04 2124.69C2348.11 2081.99 2367.04 2036.44 2379.84 1988.03C2392.06 1941.85 2399.22 1900.59 2401.31 1864.25C2406.78 1769.92 2391.74 1678.79 2356.2 1590.85C2339 1548.31 2315.26 1508.14 2289.58 1469.64C2280.7 1456.31 2269.22 1441.87 2255.15 1426.33C2216.97 1384.18 2173.4 1343.96 2125.74 1315.47C2099.58 1299.82 2075.7 1286.86 2054.09 1276.61C2022.31 1261.54 1985.62 1249.22 1944.02 1239.66C1881.15 1225.24 1819.76 1221.05 1759.84 1227.1C1725.76 1230.53 1691.81 1234.88 1657.58 1244.98C1632.64 1252.34 1608.23 1261.09 1584.38 1271.23Z" fill="white"/>
<path d="M2327.8 944.738L2578.28 981.54L2668.26 994.354C2719.48 1002.27 2771.65 1009.83 2824.78 1017.01C2928.42 1031.02 3032.63 1045.18 3137.41 1059.47C3138.46 1059.61 3139.28 1060.72 3138.57 1061.76C3137.27 1061.65 3136.01 1061.93 3134.81 1062.61C3107.73 1077.83 3082.09 1093.13 3057.89 1108.52L2559.56 1093.39L2240.33 1083.23C2234.77 1073.84 2229.24 1064.12 2223.73 1054.07C2208.51 1026.32 2191.68 1000.12 2175.36 973.365C2167.75 960.919 2152.16 938.006 2142.04 918.997C2151.45 918.299 2160.54 918.563 2169.33 919.789C2182.25 921.618 2193.74 923.627 2203.81 925.814C2235.61 932.744 2253.66 934.838 2296.96 941.853C2307.22 943.513 2317.5 944.474 2327.8 944.738Z" fill="#1D6E33"/>
<path d="M970.856 993.082L962.681 1066.03C959.758 1071.41 958.768 1077.3 959.711 1083.71C959.751 1083.97 959.737 1084.24 959.67 1084.49C959.603 1084.74 959.485 1084.98 959.323 1085.18C959.161 1085.38 958.959 1085.55 958.729 1085.68C958.499 1085.8 958.245 1085.87 957.985 1085.89C922.372 1088.69 893.519 1092.03 855.981 1093.08C795.692 1094.74 739.164 1097.48 686.399 1101.31C684.042 1101.48 673.34 1101.96 654.293 1102.75C648.541 1103 637.811 1102.78 622.102 1102.1C609.279 1101.55 596.059 1102.03 582.443 1103.52C577.182 1104.08 571.939 1104.88 566.716 1105.92L487.059 1058.45C487.209 1057.89 487.436 1057.41 487.737 1057.01C488.058 1056.63 488.501 1056.42 489.067 1056.36C526.944 1052.63 567.932 1046.32 602.244 1041.96C687.672 1031.06 792.014 1017.43 915.272 1001.06C933.564 998.626 952.092 995.967 970.856 993.082Z" fill="#DDB861"/>
<path d="M487.057 1058.45L566.714 1105.92C580.273 1132.3 593.945 1158.47 607.731 1184.42C627.419 1221.5 649.398 1255.87 667.36 1292.73C680.061 1318.75 690.245 1339.52 704.982 1364.86C725.953 1400.94 740.502 1427.14 748.63 1443.47C766.319 1479.02 785.375 1515.32 805.798 1552.38C822.695 1583.04 837.744 1610.83 850.945 1635.74C870.727 1673.06 885.644 1700.91 895.695 1719.3C910.405 1746.2 932.441 1789.51 953.628 1827.84C959.21 1837.95 964.594 1848.14 969.78 1858.42C969.101 1859.85 968.431 1861.11 967.771 1862.18C938.155 1909.5 914.365 1946.65 880.901 2005.03C867.974 2006.9 861.411 1994.42 857.394 1983.28C846.079 1951.94 835.641 1921.24 821.668 1889.93C815.991 1877.22 810.447 1864.66 805.035 1852.25C804.544 1849.12 803.828 1846.37 802.885 1843.99C777.841 1781.23 747.819 1706.31 712.818 1619.22C712.685 1618.89 712.479 1618.58 712.215 1618.34C711.95 1618.09 711.634 1617.91 711.289 1617.8C710.943 1617.69 710.577 1617.65 710.216 1617.7C709.854 1617.74 709.506 1617.87 709.197 1618.06L379.763 1827.39C379.521 1827.54 379.322 1827.75 379.185 1828.01C379.047 1828.26 378.975 1828.54 378.975 1828.83C378.975 1829.12 379.047 1829.41 379.185 1829.66C379.322 1829.92 379.521 1830.14 379.763 1830.3C419.422 1856.14 455.969 1878.85 489.405 1898.44C525.924 1919.8 559.473 1944.5 592.569 1963.84C630.662 1986.13 652.708 1999.34 658.704 2003.45C694.761 2028.23 730.017 2050.46 764.471 2070.15C771.146 2073.96 795.549 2089.75 837.678 2117.53C844.712 2122.17 861.883 2132.63 889.189 2148.93L1108.05 2286.21C1109.35 2290.09 1109.7 2294.72 1109.09 2300.1C1108.34 2306.64 1107.93 2310.64 1107.85 2312.09C1105.66 2349.86 1105.79 2387.32 1108.25 2424.47C1109.55 2443.96 1113.11 2464.25 1112.72 2481.08C1112.71 2481.38 1112.63 2481.67 1112.48 2481.93C1112.33 2482.19 1112.13 2482.41 1111.88 2482.56C1111.63 2482.72 1111.34 2482.82 1111.05 2482.84C1110.76 2482.86 1110.47 2482.81 1110.2 2482.69C1108.78 2482.07 1107.29 2481.12 1105.73 2479.86C1090 2467.08 1075.86 2453.13 1059.54 2440.99C1036.74 2424.02 1011.63 2404.07 984.206 2381.14C978.7 2376.52 971.449 2371.46 962.453 2365.95C961.36 2363.61 959.568 2361.46 957.079 2359.5C912.46 2324.22 842.694 2268.53 747.781 2192.43C725.095 2174.27 705.35 2161.18 686.002 2143.33C685.643 2142.97 684.983 2142.63 684.022 2142.31C683.494 2142.12 683.173 2141.82 683.06 2141.4L286.727 1829.68C286.5 1829.5 286.317 1829.27 286.191 1829.01C286.065 1828.75 286 1828.47 286 1828.18C286 1827.9 286.065 1827.61 286.191 1827.36C286.317 1827.1 286.5 1826.88 286.727 1826.71L675.083 1527.48C675.37 1527.26 675.577 1526.94 675.673 1526.59C675.77 1526.23 675.751 1525.85 675.62 1525.5C653.349 1468.87 631.718 1415.35 610.729 1364.95C589.419 1313.78 575.662 1280.22 569.458 1264.24C560.199 1240.46 546.328 1206.92 527.847 1163.63C519.701 1144.54 505.859 1110.68 486.322 1062.05C485.266 1059.41 485.511 1058.21 487.057 1058.45Z" fill="#1D6E33"/>
<path d="M3138.57 1061.76L3138.54 1063.09C3138.52 1064.03 3138.33 1064.96 3137.97 1065.84L2946.64 1522.73L2874.76 1465.39C2889.75 1428.14 2908.31 1394.87 2928.88 1361.07C2940.42 1342.12 2947.15 1326.39 2958.07 1303.87C2962.27 1295.22 2965.15 1288.74 2966.7 1284.44C2972.58 1267.98 2981.89 1255.93 2989.52 1240.45C2994.24 1230.91 3000.56 1220.58 3008.5 1209.45C3014.08 1201.61 3018.46 1191.01 3022.87 1181.87C3028.9 1169.42 3035.66 1158.39 3040.5 1146C3041.48 1143.51 3043.98 1138.62 3047.99 1131.32C3051.93 1124.19 3055.23 1116.59 3057.89 1108.52C3082.09 1093.13 3107.73 1077.83 3134.81 1062.61C3136.01 1061.93 3137.27 1061.65 3138.57 1061.76Z" fill="#C1964A"/>
<path d="M962.68 1066.04L930.716 1335.36L931.536 1136.92C931.536 1136.76 931.503 1136.6 931.438 1136.44C931.374 1136.29 931.279 1136.16 931.16 1136.04C931.041 1135.93 930.9 1135.84 930.746 1135.78C930.592 1135.72 930.428 1135.7 930.263 1135.71L649.314 1148.86C648.916 1148.88 648.529 1148.99 648.189 1149.2C647.849 1149.4 647.567 1149.69 647.369 1150.04C647.171 1150.38 647.064 1150.77 647.058 1151.17C647.051 1151.57 647.146 1151.96 647.334 1152.31C666.173 1187.53 683.117 1225.77 705.153 1263.54C717.92 1285.39 726.868 1301.29 731.998 1311.23C748.348 1342.8 771.175 1388.45 791.118 1423.84C811.909 1460.7 825.685 1488.45 844.355 1521.86C852.756 1536.85 862.911 1560.07 872.133 1575.57C884.692 1596.76 895.979 1621.74 910.009 1645.61C913.329 1651.29 918.797 1661.32 926.416 1675.71C950.441 1721.2 974.919 1766.68 999.85 1812.17L969.781 1858.42C964.595 1848.14 959.21 1837.95 953.628 1827.84C932.441 1789.51 910.405 1746.2 895.696 1719.3C885.645 1700.92 870.728 1673.06 850.946 1635.74C837.745 1610.83 822.696 1583.04 805.799 1552.38C785.376 1515.32 766.319 1479.02 748.63 1443.47C740.503 1427.14 725.953 1400.94 704.983 1364.86C690.245 1339.52 680.062 1318.75 667.361 1292.73C649.399 1255.87 627.419 1221.5 607.731 1184.42C593.946 1158.47 580.274 1132.3 566.715 1105.92C571.939 1104.88 577.181 1104.08 582.443 1103.52C596.058 1102.03 609.278 1101.55 622.101 1102.1C637.81 1102.78 648.541 1103 654.292 1102.75C673.339 1101.96 684.041 1101.48 686.398 1101.31C739.164 1097.48 795.691 1094.74 855.981 1093.08C893.518 1092.03 922.371 1088.69 957.985 1085.89C958.245 1085.87 958.498 1085.8 958.728 1085.68C958.958 1085.55 959.161 1085.38 959.323 1085.18C959.485 1084.98 959.603 1084.74 959.669 1084.49C959.736 1084.24 959.75 1083.97 959.71 1083.71C958.767 1077.3 959.757 1071.41 962.68 1066.04Z" fill="#C1964A"/>
<path d="M2559.55 1093.39L2551.61 1093.87C2551.17 1093.9 2550.75 1094.03 2550.39 1094.26C2550.02 1094.49 2549.72 1094.8 2549.51 1095.17C2541.61 1109.26 2535.13 1124.11 2530.08 1139.72L2268.68 1130.3C2258.51 1116.2 2249.06 1100.51 2240.33 1083.23L2559.55 1093.39Z" fill="#C1964A"/>
<path d="M2559.55 1093.39L3057.89 1108.52C3055.23 1116.6 3051.93 1124.2 3047.99 1131.32C3043.97 1138.62 3041.47 1143.52 3040.49 1146.01C3035.66 1158.39 3028.9 1169.43 3022.87 1181.87C3018.46 1191.01 3014.07 1201.62 3008.5 1209.45C3000.56 1220.58 2994.23 1230.91 2989.52 1240.46C2981.88 1255.93 2972.58 1267.98 2966.69 1284.44C2965.15 1288.74 2962.27 1295.22 2958.06 1303.88C2947.15 1326.39 2940.41 1342.12 2928.87 1361.07C2908.31 1394.88 2889.75 1428.14 2874.76 1465.4L2661.47 1295.16L2845.4 1412.47C2845.7 1412.66 2846.04 1412.79 2846.39 1412.85C2846.75 1412.9 2847.11 1412.88 2847.45 1412.79C2847.8 1412.7 2848.12 1412.53 2848.4 1412.31C2848.68 1412.08 2848.91 1411.8 2849.07 1411.48L2980.53 1156.5C2980.68 1156.2 2980.76 1155.86 2980.76 1155.52C2980.75 1155.18 2980.65 1154.84 2980.48 1154.55C2980.31 1154.25 2980.06 1154.01 2979.77 1153.84C2979.47 1153.66 2979.14 1153.57 2978.8 1153.56L2530.08 1139.73C2535.13 1124.11 2541.61 1109.26 2549.51 1095.17C2549.72 1094.8 2550.02 1094.49 2550.39 1094.26C2550.75 1094.03 2551.17 1093.9 2551.6 1093.87L2559.55 1093.39Z" fill="#DDB861"/>
<path d="M2530.08 1139.72L2978.8 1153.56C2979.14 1153.57 2979.47 1153.66 2979.77 1153.83C2980.06 1154.01 2980.31 1154.25 2980.48 1154.55C2980.65 1154.84 2980.75 1155.18 2980.76 1155.52C2980.76 1155.86 2980.68 1156.2 2980.53 1156.5L2849.07 1411.48C2848.91 1411.8 2848.68 1412.08 2848.4 1412.31C2848.12 1412.53 2847.8 1412.7 2847.45 1412.79C2847.11 1412.88 2846.75 1412.9 2846.39 1412.85C2846.04 1412.79 2845.7 1412.66 2845.4 1412.47L2661.47 1295.16C2634.05 1275.14 2607.44 1253.75 2581.65 1231.01C2579.38 1229.01 2576.78 1228.96 2573.84 1230.87L2534.38 1201.33C2534.24 1201.23 2534.07 1201.17 2533.89 1201.15C2533.72 1201.14 2533.54 1201.17 2533.38 1201.25C2533.22 1201.33 2533.09 1201.45 2533 1201.6C2532.9 1201.75 2532.85 1201.92 2532.85 1202.1C2532.25 1263.99 2530.19 1326.02 2526.68 1388.2C2524.31 1429.97 2521.6 1464.95 2518.57 1493.15C2513.02 1544.2 2505.98 1610.85 2495 1670.71C2494.94 1671.01 2494.76 1671.28 2494.51 1671.45C2494.25 1671.63 2493.94 1671.7 2493.64 1671.64C2493.4 1671.58 2493.2 1671.28 2493.05 1670.73C2476.44 1610.09 2463.72 1567.15 2454.89 1541.91C2445.95 1516.36 2435.02 1486.26 2422.11 1451.62C2399.93 1391.99 2383.27 1358.24 2346.32 1278.47C2343.4 1272.14 2337.61 1260.9 2328.96 1244.76C2308.85 1207.25 2288.76 1169.1 2268.68 1130.3L2530.08 1139.72Z" fill="#04A03C"/>
<path d="M930.717 1335.36C928.643 1366.16 925.305 1396.9 920.703 1427.6C918.129 1444.63 918.61 1461.07 916.262 1476.43C914.772 1486.29 913.924 1496.14 913.716 1505.96C913.697 1506.87 914.032 1507.74 914.65 1508.39C916.008 1509.83 917.761 1510.92 919.911 1511.67L912.245 1516.63C911.723 1516.96 911.28 1517.41 910.948 1517.94C910.615 1518.47 910.402 1519.06 910.322 1519.68L903.957 1572.27C903.936 1572.47 903.971 1572.67 904.058 1572.85C904.145 1573.04 904.28 1573.19 904.45 1573.3C904.619 1573.41 904.816 1573.48 905.019 1573.48C905.221 1573.49 905.422 1573.44 905.598 1573.34C915.253 1567.59 932.584 1556.86 957.59 1541.15C1000.5 1514.16 1066.84 1478.24 1092.18 1462.51C1101.21 1456.89 1121.98 1445.82 1154.47 1429.3C1168.63 1422.1 1189.5 1411.16 1217.07 1396.49C1247.11 1380.53 1280.74 1366.36 1323.57 1346.28C1349.9 1333.93 1367.21 1326.18 1375.51 1323.03C1376.09 1322.8 1376.59 1322.78 1377.01 1322.97C1377.19 1323.06 1377.35 1323.18 1377.47 1323.34C1377.6 1323.5 1377.68 1323.69 1377.72 1323.88C1377.76 1324.08 1377.75 1324.28 1377.7 1324.47C1377.64 1324.66 1377.54 1324.84 1377.4 1324.98C1348.8 1354.79 1315.88 1391.34 1284.68 1431.88C1275 1444.44 1264.93 1456.93 1254.47 1469.36C1223.52 1506.13 1196.02 1546.13 1166.86 1581.57C1137.64 1617.16 1119.65 1644.85 1094.1 1678.68C1083.36 1692.94 1071.78 1709.15 1059.37 1727.31C1039.87 1755.86 1020.03 1784.15 999.851 1812.17C974.921 1766.68 950.443 1721.2 926.417 1675.71C918.799 1661.32 913.33 1651.29 910.011 1645.62C895.98 1621.74 884.694 1596.76 872.134 1575.58C862.912 1560.07 852.757 1536.85 844.356 1521.86C825.686 1488.45 811.91 1460.7 791.119 1423.84C771.177 1388.46 748.349 1342.8 731.999 1311.23C726.869 1301.29 717.921 1285.4 705.154 1263.54C683.118 1225.78 666.174 1187.53 647.335 1152.31C647.148 1151.96 647.053 1151.57 647.059 1151.17C647.065 1150.77 647.172 1150.38 647.37 1150.04C647.568 1149.69 647.85 1149.41 648.19 1149.2C648.531 1148.99 648.918 1148.88 649.315 1148.86L930.264 1135.71C930.429 1135.7 930.593 1135.73 930.747 1135.78C930.901 1135.84 931.042 1135.93 931.161 1136.04C931.28 1136.16 931.375 1136.29 931.44 1136.45C931.504 1136.6 931.537 1136.76 931.537 1136.92L930.717 1335.36Z" fill="#04A03C"/>
<path d="M1975 2399.89C1955.91 2375.45 1935.88 2352.13 1914.89 2329.91C2058.73 2298.17 2182.14 2207.6 2254.02 2079.23C2398.43 1821.28 2300.41 1494.11 2037.91 1361.16C1989.84 1336.81 1938.85 1320.6 1884.93 1312.53C1779.04 1296.65 1676.53 1314.39 1577.39 1365.74C1590.15 1333.52 1588.88 1304.86 1584.38 1271.23C1608.23 1261.08 1632.64 1252.33 1657.59 1244.98C1691.81 1234.88 1725.76 1230.52 1759.84 1227.1C1819.76 1221.05 1881.15 1225.23 1944.02 1239.66C1985.62 1249.22 2022.31 1261.54 2054.09 1276.6C2075.7 1286.86 2099.58 1299.82 2125.74 1315.47C2173.4 1343.96 2216.97 1384.18 2255.15 1426.33C2269.22 1441.87 2280.7 1456.3 2289.58 1469.64C2315.26 1508.14 2339 1548.3 2356.2 1590.85C2391.74 1678.78 2406.78 1769.92 2401.31 1864.24C2399.22 1900.58 2392.06 1941.85 2379.84 1988.03C2367.04 2036.44 2348.11 2081.99 2323.04 2124.69C2309.28 2148.13 2294.93 2169.9 2279.99 2190C2254.25 2224.65 2223.39 2255.34 2189.56 2284.03C2175.19 2296.19 2161.34 2306.87 2148.03 2316.05C2124.55 2332.27 2109.53 2342.27 2102.97 2346.06C2081.81 2358.32 2064.81 2366.99 2051.97 2372.06C2021.33 2384.11 2001.16 2392.34 1975 2399.89Z" fill="#DDB861"/>
<path d="M2661.47 1295.16L2874.76 1465.4L2946.64 1522.73L3338.13 1828.69C3338.29 1828.81 3338.41 1828.96 3338.49 1829.14C3338.58 1829.31 3338.62 1829.5 3338.62 1829.69C3338.62 1829.89 3338.58 1830.08 3338.49 1830.25C3338.41 1830.43 3338.29 1830.58 3338.13 1830.7L2950.29 2134.7C2949.88 2135.03 2949.58 2135.48 2949.45 2135.99C2949.32 2136.49 2949.35 2137.02 2949.55 2137.5C3003.99 2273.66 3054.84 2396.77 3102.1 2506.82C3114.02 2534.62 3126.27 2563.76 3138.85 2594.26L3055.03 2550.47L2809.39 2100.42C2791.32 2068.23 2773.48 2035.95 2755.87 2003.59C2745.99 1985.43 2730.73 1957.94 2710.1 1921.13C2694.73 1893.73 2679.76 1866.11 2665.18 1838.28C2662.46 1833.09 2659.62 1827.55 2656.66 1821.65C2668.2 1803.11 2679.91 1784.52 2691.77 1765.89C2704.2 1746.34 2724.62 1710.72 2753.04 1659.05C2754.87 1662.35 2756.69 1665.52 2758.5 1668.56C2760.59 1672.04 2762.3 1675.28 2763.62 1678.26C2776.25 1706.77 2788.46 1737.84 2800.25 1771.47C2804.02 1782.29 2809.06 1794.39 2815.36 1807.76L2910.99 2046.05C2911.16 2046.47 2911.42 2046.86 2911.76 2047.17C2912.09 2047.48 2912.49 2047.71 2912.93 2047.85C2913.37 2047.99 2913.83 2048.03 2914.28 2047.97C2914.73 2047.91 2915.17 2047.74 2915.55 2047.49L3244.16 1831.18C3244.44 1831 3244.67 1830.75 3244.83 1830.46C3244.98 1830.16 3245.07 1829.84 3245.06 1829.5C3245.06 1829.17 3244.97 1828.84 3244.81 1828.55C3244.65 1828.26 3244.42 1828.02 3244.13 1827.84L2879 1599.82C2807.24 1555.21 2749.98 1519.4 2663.82 1466.36C2632.99 1447.39 2602.19 1427.75 2571.43 1407.44C2574.28 1352.26 2576.4 1295.94 2577.8 1238.48C2577.89 1234.72 2576.57 1232.19 2573.84 1230.87C2576.78 1228.96 2579.38 1229.01 2581.65 1231.01C2607.44 1253.75 2634.05 1275.14 2661.47 1295.16Z" fill="#1D6E33"/>
<path d="M1584.38 1271.23C1588.88 1304.86 1590.15 1333.52 1577.39 1365.74C1488.13 1414.39 1419.37 1481.59 1371.09 1567.34C1326.2 1647.08 1302.95 1736.61 1303.71 1827.44C1306.37 2148.53 1597.16 2394.77 1914.89 2329.91C1935.88 2352.13 1955.91 2375.45 1975 2399.89C1956.36 2405.74 1937.44 2410.35 1918.22 2413.73C1854.55 2424.9 1784.23 2426.96 1718.88 2415.76C1709.15 2414.1 1691.7 2410.84 1666.52 2405.98C1652.68 2403.3 1640 2399.74 1628.48 2395.31C1607.87 2387.35 1583.92 2376.85 1556.66 2363.8C1542.72 2357.14 1516.18 2342.16 1477.03 2318.85C1474.65 2317.44 1468.62 2313.02 1458.92 2305.61C1452.72 2300.88 1446.89 2295.94 1441.44 2290.79C1419.32 2270.01 1400.04 2251.72 1383.59 2235.94C1352.76 2206.3 1333.33 2174.95 1306.4 2134.02C1296.69 2119.24 1287.75 2102.18 1279.58 2082.85C1261.91 2041.02 1251.47 2014.78 1248.27 2004.13C1243.42 1988.1 1238.15 1965.32 1232.46 1935.78C1221.16 1877.29 1218.92 1818.67 1225.72 1759.95C1232.14 1704.59 1243.37 1646.66 1265.35 1596C1272.29 1580.01 1283.06 1557.96 1297.66 1529.86C1310.37 1505.44 1323.18 1484.58 1336.1 1467.29C1364.56 1429.18 1396.09 1395.49 1430.69 1366.22C1442.25 1356.43 1460.34 1342.42 1484.95 1324.18C1510.86 1304.99 1544 1287.34 1584.38 1271.23Z" fill="#C1964A"/>
<path d="M1914.88 2329.91C1597.16 2394.78 1306.37 2148.53 1303.71 1827.45C1302.95 1736.61 1326.2 1647.09 1371.09 1567.34C1419.37 1481.6 1488.13 1414.39 1577.39 1365.74C1676.53 1314.39 1779.04 1296.65 1884.93 1312.53C1938.84 1320.6 1989.84 1336.81 2037.91 1361.16C2300.41 1494.11 2398.43 1821.28 2254.02 2079.23C2182.14 2207.6 2058.73 2298.17 1914.88 2329.91ZM1811.72 1685.84C1811.96 1685.98 1812.17 1686.18 1812.32 1686.42C1812.47 1686.66 1812.55 1686.94 1812.57 1687.23L1838.34 2167.91C1838.35 2168.21 1838.44 2168.5 1838.6 2168.76C1838.76 2169.02 1838.99 2169.23 1839.25 2169.37C1839.52 2169.52 1839.82 2169.6 1840.12 2169.6C1840.43 2169.6 1840.73 2169.53 1841 2169.38C1845.85 2166.72 1851.46 2163.22 1857.83 2158.89C1872.52 2148.89 1890.62 2134.48 1912.14 2115.66C1929.98 2100.07 1946.64 2082.13 1962.12 2061.83C2008.26 2001.33 2031.54 1931.12 2026.11 1854.8C2022.89 1809.48 2012.62 1764.51 1994.57 1720.77C1954.83 1624.37 1890.53 1540.16 1813.08 1470.66C1812.68 1470.31 1812.17 1470.11 1811.64 1470.12C1811.12 1470.12 1810.61 1470.33 1810.22 1470.69C1784.29 1494.88 1759.09 1521.26 1734.61 1549.83C1710.6 1577.86 1686.38 1612.58 1661.94 1653.99C1647.66 1678.18 1634.46 1706.89 1622.34 1740.12C1606.72 1782.84 1598.24 1829.91 1597.93 1872.76C1597.51 1930.92 1612.33 1984.41 1642.39 2033.24C1659.71 2061.33 1680.57 2086.49 1704.99 2108.71C1730.9 2132.27 1755.2 2152.49 1784.17 2168.87C1784.39 2168.99 1784.63 2169.06 1784.88 2169.06C1785.13 2169.06 1785.37 2168.99 1785.59 2168.87C1785.8 2168.75 1785.98 2168.57 1786.11 2168.36C1786.24 2168.15 1786.31 2167.9 1786.32 2167.66C1786.72 2147.8 1789.71 2125.03 1790.31 2101.66C1790.99 2074.45 1792.65 2040.13 1795.29 1998.7C1798.14 1953.95 1799.33 1917 1801.93 1877.03C1806.15 1812.65 1808.47 1735.54 1811.07 1686.18C1811.07 1686.07 1811.12 1685.96 1811.2 1685.88C1811.29 1685.8 1811.4 1685.75 1811.52 1685.75L1811.72 1685.84Z" fill="white"/>
<path d="M2571.44 1407.43C2602.19 1427.74 2632.99 1447.38 2663.82 1466.36C2749.99 1519.39 2807.24 1555.21 2879 1599.82C2865.31 1612 2858.68 1627.02 2859.12 1644.88L2567.62 1462.08L2571.44 1407.43Z" fill="#C1964A"/>
<path d="M2859.12 1644.88L3155.37 1828.75C3155.65 1828.92 3155.89 1829.17 3156.05 1829.46C3156.22 1829.75 3156.3 1830.08 3156.31 1830.41C3156.32 1830.75 3156.24 1831.08 3156.08 1831.37C3155.93 1831.67 3155.7 1831.92 3155.43 1832.11L2917.25 1988.88C2916.9 1989.11 2916.51 1989.27 2916.1 1989.34C2915.69 1989.41 2915.26 1989.39 2914.86 1989.29C2914.45 1989.19 2914.08 1989.01 2913.75 1988.75C2913.42 1988.49 2913.14 1988.17 2912.95 1987.81L2815.36 1807.76C2809.06 1794.39 2804.02 1782.29 2800.25 1771.46C2788.46 1737.84 2776.25 1706.77 2763.62 1678.26C2762.3 1675.28 2760.59 1672.04 2758.5 1668.55C2756.69 1665.52 2754.87 1662.35 2753.04 1659.05C2748.36 1641.81 2742.36 1624.28 2735.02 1606.44C2734.66 1605.57 2734 1605.17 2733.04 1605.25C2732.49 1605.29 2732.03 1605.63 2731.65 1606.29C2714.17 1636.9 2703.05 1658.85 2687.44 1684.06C2682.65 1691.81 2664.63 1722.24 2633.38 1775.37C2626.14 1787.7 2614.66 1803.17 2605.69 1817.37C2576.59 1863.52 2558.21 1891.69 2550.56 1901.9C2529.82 1929.45 2510.67 1958.19 2487.99 1988.4C2463.6 2020.91 2442.69 2047.66 2425.25 2068.65C2423.87 2070.29 2422.44 2071.78 2420.97 2073.12C2420.86 2073.22 2420.71 2073.27 2420.56 2073.28C2420.41 2073.29 2420.26 2073.25 2420.14 2073.17C2420.01 2073.09 2419.92 2072.97 2419.86 2072.82C2419.81 2072.68 2419.8 2072.53 2419.84 2072.38C2430.93 2039.66 2450.99 1993.26 2461.11 1963.17C2471.72 1931.68 2483.69 1899.27 2492 1868.29C2503.52 1825.29 2516.67 1784.11 2526.46 1741.14C2542.69 1669.91 2554.37 1598.05 2561.48 1525.56C2563.51 1504.76 2565.56 1483.6 2567.62 1462.09L2859.12 1644.88Z" fill="#04A03C"/>
<path d="M1811.07 1686.18C1808.47 1735.54 1806.15 1812.65 1801.93 1877.03C1799.33 1917 1798.14 1953.94 1795.29 1998.7C1792.65 2040.13 1790.99 2074.45 1790.31 2101.66C1789.71 2125.03 1786.72 2147.8 1786.32 2167.66C1786.31 2167.9 1786.24 2168.15 1786.11 2168.36C1785.99 2168.57 1785.8 2168.75 1785.59 2168.87C1785.37 2168.99 1785.13 2169.06 1784.88 2169.06C1784.63 2169.06 1784.39 2168.99 1784.17 2168.87C1755.2 2152.49 1730.9 2132.27 1704.99 2108.7C1680.57 2086.49 1659.71 2061.33 1642.39 2033.23C1612.33 1984.41 1597.51 1930.92 1597.93 1872.76C1598.24 1829.9 1606.72 1782.83 1622.34 1740.12C1634.46 1706.89 1647.66 1678.18 1661.94 1653.99C1686.38 1612.57 1710.6 1577.86 1734.61 1549.83C1759.09 1521.26 1784.29 1494.88 1810.22 1470.68C1810.61 1470.32 1811.12 1470.12 1811.65 1470.12C1812.17 1470.11 1812.69 1470.3 1813.08 1470.66C1890.53 1540.16 1954.83 1624.37 1994.57 1720.77C2012.62 1764.5 2022.89 1809.48 2026.11 1854.8C2031.54 1931.12 2008.26 2001.33 1962.13 2061.83C1946.64 2082.12 1929.98 2100.07 1912.14 2115.66C1890.62 2134.48 1872.52 2148.89 1857.83 2158.89C1851.46 2163.22 1845.85 2166.72 1841 2169.38C1840.73 2169.53 1840.43 2169.6 1840.12 2169.6C1839.82 2169.6 1839.52 2169.52 1839.25 2169.37C1838.99 2169.23 1838.76 2169.01 1838.6 2168.76C1838.44 2168.5 1838.35 2168.21 1838.34 2167.91L1812.57 1687.22C1812.55 1686.94 1812.47 1686.66 1812.32 1686.42C1812.17 1686.17 1811.97 1685.98 1811.72 1685.84L1811.52 1685.75C1811.4 1685.75 1811.29 1685.8 1811.2 1685.88C1811.12 1685.96 1811.07 1686.06 1811.07 1686.18Z" fill="#3DAD4E"/>
<path d="M2879 1599.82L3244.13 1827.84C3244.42 1828.02 3244.65 1828.26 3244.81 1828.55C3244.97 1828.84 3245.06 1829.17 3245.06 1829.5C3245.07 1829.83 3244.98 1830.16 3244.83 1830.46C3244.67 1830.75 3244.44 1831 3244.16 1831.18L2915.55 2047.49C2915.17 2047.74 2914.73 2047.9 2914.28 2047.97C2913.83 2048.03 2913.37 2047.99 2912.93 2047.85C2912.49 2047.71 2912.09 2047.48 2911.76 2047.17C2911.42 2046.86 2911.16 2046.47 2910.99 2046.05L2815.36 1807.76L2912.95 1987.8C2913.14 1988.17 2913.42 1988.49 2913.75 1988.75C2914.08 1989.01 2914.45 1989.19 2914.86 1989.29C2915.26 1989.39 2915.69 1989.41 2916.1 1989.34C2916.51 1989.27 2916.9 1989.11 2917.25 1988.88L3155.43 1832.11C3155.7 1831.92 3155.93 1831.67 3156.08 1831.37C3156.24 1831.08 3156.32 1830.75 3156.31 1830.41C3156.3 1830.08 3156.22 1829.75 3156.05 1829.46C3155.89 1829.17 3155.65 1828.92 3155.37 1828.75L2859.12 1644.88C2858.68 1627.02 2865.31 1612 2879 1599.82Z" fill="#DDB861"/>
<path d="M805.037 1852.25C799.04 1841.03 793.118 1830.2 787.272 1819.75C763.058 1776.55 737.553 1728.16 710.755 1674.58C710.62 1674.31 710.429 1674.07 710.194 1673.87C709.96 1673.68 709.687 1673.53 709.394 1673.45C709.101 1673.37 708.793 1673.35 708.492 1673.39C708.19 1673.44 707.901 1673.54 707.643 1673.7L469.691 1824.93C469.379 1825.13 469.123 1825.4 468.947 1825.73C468.77 1826.06 468.679 1826.42 468.682 1826.79C468.685 1827.16 468.781 1827.52 468.963 1827.83C469.144 1828.15 469.405 1828.42 469.719 1828.61C492.349 1842.47 510.905 1854.53 525.388 1864.78C537.213 1873.16 550.008 1881.03 563.774 1888.4C598.143 1906.79 639.499 1935.22 681.053 1962.8C688.276 1967.59 697.488 1972.98 708.69 1978.98C729.378 1990.01 759.202 2008.79 798.163 2035.3C807.931 2041.96 824.593 2052.13 848.146 2065.82C870.154 2078.61 894.113 2094.25 916.969 2108.73C891.426 2112.75 889.87 2126.27 889.191 2148.93C861.885 2132.64 844.714 2122.17 837.68 2117.53C795.551 2089.75 771.148 2073.96 764.473 2070.15C730.019 2050.46 694.763 2028.23 658.706 2003.45C652.71 1999.34 630.664 1986.14 592.571 1963.85C559.475 1944.5 525.926 1919.8 489.407 1898.45C455.971 1878.85 419.424 1856.14 379.765 1830.3C379.523 1830.14 379.324 1829.92 379.186 1829.66C379.049 1829.41 378.977 1829.12 378.977 1828.83C378.977 1828.54 379.049 1828.26 379.186 1828.01C379.324 1827.76 379.523 1827.54 379.765 1827.39L709.199 1618.06C709.508 1617.87 709.856 1617.75 710.218 1617.7C710.579 1617.65 710.945 1617.69 711.291 1617.8C711.636 1617.91 711.952 1618.09 712.217 1618.34C712.481 1618.59 712.687 1618.89 712.82 1619.22C747.821 1706.31 777.843 1781.23 802.887 1843.99C803.83 1846.37 804.546 1849.12 805.037 1852.25Z" fill="#C1964A"/>
<path d="M1349.88 2564.58C1343.67 2564.15 1337.64 2563.48 1331.77 2562.57C1305.95 2558.64 1279.36 2557.57 1253.3 2555.67C1241.23 2554.78 1221.13 2552.97 1192.99 2550.24C1148.53 2545.92 1104.16 2542.21 1059.9 2539.09L646.23 2501.76C645.893 2501.73 645.57 2501.61 645.288 2501.43C645.006 2501.24 644.774 2500.99 644.615 2500.69C644.455 2500.39 644.371 2500.06 644.372 2499.72C644.372 2499.39 644.457 2499.05 644.617 2498.76L781.839 2251.61C782.018 2251.29 782.261 2251.01 782.553 2250.78C782.844 2250.56 783.178 2250.39 783.534 2250.3C783.889 2250.21 784.259 2250.2 784.619 2250.26C784.98 2250.32 785.324 2250.45 785.629 2250.65L962.453 2365.95C971.449 2371.45 978.7 2376.52 984.206 2381.14C1011.63 2404.07 1036.74 2424.02 1059.54 2440.99C1075.86 2453.13 1090 2467.08 1105.73 2479.86C1107.29 2481.12 1108.78 2482.07 1110.2 2482.69C1110.47 2482.81 1110.76 2482.86 1111.05 2482.84C1111.34 2482.82 1111.63 2482.72 1111.88 2482.56C1112.13 2482.4 1112.33 2482.19 1112.48 2481.93C1112.63 2481.67 1112.71 2481.38 1112.72 2481.08C1113.11 2464.25 1109.55 2443.96 1108.25 2424.47C1105.79 2387.32 1105.66 2349.86 1107.85 2312.09C1107.93 2310.64 1108.34 2306.64 1109.09 2300.1C1109.7 2294.72 1109.35 2290.09 1108.05 2286.21L1108.9 2283.58C1109.08 2282.96 1109.19 2282.32 1109.21 2281.68L1110.34 2232.29C1110.36 2231.59 1110.19 2230.9 1109.87 2230.29C1109.54 2229.67 1109.06 2229.15 1108.47 2228.78L916.967 2108.73C894.111 2094.25 870.152 2078.61 848.144 2065.82C824.59 2052.13 807.929 2041.96 798.161 2035.3C759.2 2008.78 729.375 1990.01 708.688 1978.98C697.486 1972.98 688.274 1967.59 681.051 1962.8C639.497 1935.22 598.141 1906.79 563.772 1888.4C550.006 1881.03 537.21 1873.16 525.386 1864.78C510.903 1854.52 492.347 1842.46 469.717 1828.6C469.403 1828.42 469.142 1828.15 468.961 1827.83C468.779 1827.51 468.683 1827.15 468.68 1826.79C468.677 1826.42 468.768 1826.05 468.945 1825.73C469.121 1825.4 469.377 1825.13 469.689 1824.93L707.641 1673.7C707.899 1673.54 708.188 1673.43 708.49 1673.39C708.791 1673.35 709.099 1673.37 709.392 1673.45C709.685 1673.53 709.958 1673.67 710.192 1673.87C710.427 1674.06 710.618 1674.31 710.753 1674.58C737.55 1728.15 763.056 1776.54 787.27 1819.75C793.116 1830.2 799.038 1841.03 805.034 1852.25C810.447 1864.66 815.991 1877.22 821.667 1889.93C835.641 1921.24 846.079 1951.94 857.394 1983.28C861.411 1994.42 867.974 2006.9 880.901 2005.03L875.809 2016.2C875.451 2017 875.254 2017.87 875.229 2018.74C875.205 2019.62 875.354 2020.5 875.668 2021.32L893.687 2068.17C893.772 2068.39 893.919 2068.59 894.112 2068.73C894.305 2068.87 894.534 2068.95 894.773 2068.97C895.011 2068.98 895.25 2068.93 895.458 2068.81C895.667 2068.7 895.838 2068.52 895.95 2068.31C917.25 2028.4 947.744 1980.87 963.811 1953.94C978.709 1928.98 993.654 1905.44 1008.65 1883.34C1028.65 1853.86 1058.55 1806.43 1085.53 1769.14C1105.16 1742.04 1124.91 1712.17 1144.03 1687.65C1149.23 1681.01 1160.3 1666.57 1177.24 1644.34C1177.34 1644.22 1177.47 1644.14 1177.62 1644.11C1177.77 1644.07 1177.92 1644.08 1178.06 1644.14C1178.2 1644.2 1178.32 1644.31 1178.39 1644.44C1178.47 1644.57 1178.5 1644.73 1178.48 1644.88C1165.89 1713.86 1155.61 1778.94 1147.65 1840.12C1141.71 1885.86 1134.61 1929.87 1131.19 1971.11C1130.76 1976.43 1130.54 1980.22 1131.41 1985.23C1138.51 2025.6 1147.93 2057.39 1159.64 2103.75C1165.51 2126.85 1171.45 2147.28 1177.46 2165.02C1196.3 2220.52 1209.24 2257.89 1216.28 2277.13C1223.55 2296.98 1233.13 2319.9 1245.02 2345.86C1245.03 2345.94 1251.46 2361.46 1264.31 2392.43C1271.62 2410.11 1280.69 2429.32 1291.52 2450.05C1297.01 2460.55 1306.5 2479.57 1320 2507.1C1329.34 2526.17 1339.3 2545.33 1349.88 2564.58Z" fill="#04A03C"/>
<path d="M2656.66 1821.64C2659.62 1827.55 2662.46 1833.09 2665.18 1838.28C2679.76 1866.11 2694.73 1893.73 2710.1 1921.13C2730.73 1957.94 2745.99 1985.43 2755.87 2003.59C2773.48 2035.95 2791.32 2068.23 2809.39 2100.42C2788.23 2104.72 2782.09 2121.77 2776.01 2140.05L2627.5 1868.8L2656.66 1821.64Z" fill="#C1964A"/>
<path d="M2627.5 1868.8L2776.01 2140.05L2977.53 2508.97C2977.61 2509.13 2977.65 2509.31 2977.65 2509.49C2977.65 2509.66 2977.61 2509.84 2977.53 2510C2977.44 2510.16 2977.32 2510.3 2977.17 2510.4C2977.03 2510.5 2976.86 2510.56 2976.68 2510.58L2679.69 2541.44C2679.52 2541.46 2679.35 2541.44 2679.19 2541.39C2679.03 2541.34 2678.89 2541.25 2678.76 2541.14C2678.64 2541.03 2678.54 2540.89 2678.48 2540.74C2678.41 2540.58 2678.38 2540.42 2678.39 2540.26L2682.09 2344.45C2681.74 2335.59 2682.24 2326.54 2683.62 2317.3C2687.37 2291.72 2691.3 2266.11 2695.39 2240.44C2696.31 2234.69 2697.09 2221.37 2697.71 2200.5C2697.72 2200.34 2697.69 2200.18 2697.62 2200.04C2697.55 2199.9 2697.45 2199.77 2697.32 2199.67C2697.19 2199.58 2697.05 2199.51 2696.89 2199.48C2696.73 2199.45 2696.56 2199.46 2696.41 2199.51L2687.58 2202.22C2698.33 2195.06 2707.03 2189.64 2713.69 2185.96C2716.76 2184.28 2719.04 2182.41 2720.51 2180.36C2721.08 2179.56 2721.44 2178.63 2721.55 2177.67L2728.17 2123.16C2728.2 2122.96 2728.16 2122.76 2728.07 2122.59C2727.99 2122.41 2727.85 2122.26 2727.68 2122.15C2727.51 2122.05 2727.32 2122 2727.12 2122C2726.92 2122 2726.73 2122.06 2726.56 2122.17C2692.94 2144.16 2663.31 2164.12 2637.68 2182.05C2628.03 2188.82 2613.95 2197.59 2595.45 2208.36C2561.48 2228.19 2520.83 2255.32 2493.76 2269.41C2460.23 2286.89 2426.3 2305.07 2391.98 2323.94C2381.53 2329.69 2366.58 2336.88 2347.12 2345.5C2301.14 2365.83 2254.13 2385.08 2206.08 2403.26C2180.56 2412.9 2159.52 2420.21 2142.97 2425.21C2122.86 2431.27 2101.44 2437.38 2078.7 2443.57C2078.57 2443.63 2078.43 2443.63 2078.31 2443.58C2078.18 2443.54 2078.07 2443.44 2078.02 2443.32C2077.96 2443.19 2077.96 2443.05 2078.01 2442.92C2078.05 2442.8 2078.15 2442.69 2078.27 2442.64C2115.24 2418.86 2147.72 2397.01 2175.72 2377.1C2185.77 2369.95 2204.48 2355.23 2231.84 2332.94C2247.95 2319.83 2265.66 2303.93 2284.97 2285.25C2294.42 2276.1 2316.02 2255.13 2349.77 2222.34C2375.8 2197.02 2398.91 2168.02 2421.03 2143.67C2434.06 2129.3 2447.06 2114.03 2460.04 2097.87C2509.84 2035.83 2545.33 1989.25 2566.51 1958.13C2586.22 1929.18 2606.55 1899.41 2627.5 1868.8Z" fill="#04A03C"/>
<path d="M2809.39 2100.42L3055.03 2550.47C3040.44 2550.98 3026 2552.18 3011.73 2554.09C2986.89 2557.43 2972.55 2559.28 2968.7 2559.66C2895.93 2566.73 2858.67 2570.35 2856.94 2570.5C2835.33 2572.28 2811.51 2576.97 2792.61 2577.77C2776.18 2578.44 2764.58 2581.05 2745.99 2582.29C2745.88 2582.29 2734.26 2583.69 2711.14 2586.48C2691.04 2588.91 2670.94 2589.93 2650.84 2589.53C2658.42 2525.46 2666.71 2462.13 2673.83 2398.68C2675.85 2380.58 2678.6 2362.5 2682.09 2344.45L2678.39 2540.26C2678.38 2540.42 2678.41 2540.59 2678.48 2540.74C2678.54 2540.89 2678.64 2541.03 2678.76 2541.14C2678.89 2541.25 2679.03 2541.34 2679.19 2541.39C2679.35 2541.44 2679.52 2541.46 2679.69 2541.45L2976.68 2510.58C2976.86 2510.56 2977.03 2510.5 2977.17 2510.4C2977.32 2510.3 2977.44 2510.16 2977.53 2510C2977.61 2509.84 2977.65 2509.67 2977.65 2509.49C2977.65 2509.31 2977.61 2509.13 2977.53 2508.97L2776.01 2140.05C2782.09 2121.77 2788.23 2104.72 2809.39 2100.42Z" fill="#DDB861"/>
<path d="M916.97 2108.73L1108.47 2228.79C1109.06 2229.16 1109.54 2229.68 1109.87 2230.29C1110.2 2230.9 1110.36 2231.59 1110.34 2232.29L1109.21 2281.68C1109.19 2282.32 1109.09 2282.96 1108.9 2283.58L1108.05 2286.21L889.191 2148.93C889.87 2126.27 891.426 2112.75 916.97 2108.73Z" fill="#DDB861"/>
<path d="M1756.08 2639.69L1466.9 2808.31L1130.71 3001.68C1130.49 3001.8 1130.25 3001.86 1130 3001.86C1129.75 3001.86 1129.51 3001.8 1129.29 3001.68C1129.07 3001.56 1128.89 3001.39 1128.76 3001.18C1128.62 3000.98 1128.54 3000.74 1128.53 3000.49L1110.37 2718.27C1118.44 2718.51 1125.14 2719.32 1130.48 2720.7C1142.87 2723.87 1159.73 2729.89 1174.16 2732.95C1220.9 2742.81 1249.93 2748.68 1261.22 2750.54C1291.49 2755.61 1319.1 2762.57 1350.02 2767.21C1366.73 2769.69 1382.72 2773.94 1399.15 2775.92C1423.65 2778.9 1449.17 2783.24 1475.73 2788.96C1476.12 2789.05 1476.53 2789.02 1476.92 2788.89C1477.3 2788.76 1477.64 2788.52 1477.89 2788.21C1478.15 2787.89 1478.31 2787.51 1478.36 2787.11C1478.42 2786.71 1478.35 2786.3 1478.19 2785.93L1461.07 2747.88L1515.1 2752.78C1515.29 2752.8 1515.48 2752.77 1515.64 2752.68C1515.81 2752.6 1515.95 2752.47 1516.05 2752.31C1516.15 2752.15 1516.2 2751.97 1516.2 2751.78C1516.19 2751.59 1516.14 2751.41 1516.04 2751.25C1481.26 2697.49 1447.99 2643.56 1416.24 2589.48C1398.84 2559.83 1381.53 2523.88 1365.69 2495.34C1339.52 2448.15 1327.76 2420.83 1298.79 2357.07C1284.81 2326.29 1273 2297.69 1263.34 2271.27C1242.67 2214.73 1226.32 2173.48 1214.1 2125.54C1214.07 2125.38 1214.1 2125.22 1214.17 2125.09C1214.24 2124.95 1214.36 2124.84 1214.5 2124.77C1214.64 2124.71 1214.8 2124.69 1214.95 2124.73C1215.11 2124.76 1215.24 2124.85 1215.34 2124.97C1240.18 2159.93 1264.87 2197.44 1293.13 2230C1335.79 2279.16 1361.14 2307.82 1369.2 2315.97C1375.95 2322.77 1403.77 2350.43 1452.67 2398.93C1468.14 2414.26 1484.57 2429.36 1501.98 2444.22C1544.01 2480.09 1574.36 2505.76 1593.03 2521.22C1644.8 2564.02 1701.26 2600.9 1756.08 2639.69Z" fill="#04A03C"/>
<path d="M962.454 2365.95L785.63 2250.65C785.324 2250.45 784.981 2250.32 784.62 2250.26C784.26 2250.2 783.89 2250.22 783.534 2250.31C783.179 2250.4 782.845 2250.56 782.553 2250.78C782.262 2251.01 782.019 2251.29 781.84 2251.61L644.618 2498.76C644.457 2499.06 644.373 2499.39 644.372 2499.73C644.372 2500.06 644.455 2500.4 644.615 2500.69C644.775 2500.99 645.006 2501.24 645.288 2501.43C645.57 2501.62 645.894 2501.73 646.23 2501.76L1059.9 2539.1C1046.81 2555.53 1048.65 2570.95 1057.84 2588.57C922.305 2576.9 786.903 2564.65 651.633 2551.83C624.845 2549.28 601.282 2548.77 575.71 2546.82C572.734 2546.58 569.743 2547.19 567.082 2548.57C538.927 2563.3 512.912 2576.69 489.038 2588.74C488.453 2589.02 487.718 2588.98 486.831 2588.6C486.643 2587.36 486.699 2586.4 487.001 2585.74C499.08 2558.36 510.649 2529.59 522.728 2503.4C577.191 2384.91 630.512 2264.75 682.693 2142.91C682.806 2142.64 682.928 2142.14 683.06 2141.41C683.174 2141.82 683.494 2142.12 684.022 2142.31C684.984 2142.63 685.644 2142.97 686.002 2143.33C705.351 2161.18 725.095 2174.28 747.782 2192.44C842.695 2268.53 912.461 2324.22 957.079 2359.5C959.569 2361.46 961.36 2363.61 962.454 2365.95Z" fill="#C1964A"/>
<path d="M2682.1 2344.45C2678.61 2362.5 2675.85 2380.57 2673.84 2398.68C2666.71 2462.13 2658.42 2525.46 2650.84 2589.53L2636.75 2688.96L2577.46 3164.05C2577.39 3164.64 2577.18 3165.2 2576.84 3165.69C2576.5 3166.18 2576.04 3166.58 2575.51 3166.85C2575.15 3167.02 2574.14 3166.63 2572.48 3165.69C2571.64 3161.59 2570.42 3158.01 2568.83 3154.94C2557.31 3132.48 2545.37 3110.23 2533.02 3088.18C2532 3086.39 2531.05 3083.37 2530.17 3079.13L2530.31 2465.32L2530 2300.46C2559.58 2283.47 2578.73 2272.28 2587.42 2266.89C2605.77 2255.5 2639.16 2233.94 2687.58 2202.22L2696.41 2199.51C2696.57 2199.46 2696.73 2199.45 2696.89 2199.48C2697.05 2199.51 2697.2 2199.58 2697.33 2199.67C2697.45 2199.77 2697.55 2199.9 2697.62 2200.04C2697.69 2200.18 2697.72 2200.34 2697.71 2200.5C2697.09 2221.37 2696.32 2234.69 2695.39 2240.44C2691.3 2266.1 2687.38 2291.72 2683.62 2317.29C2682.25 2326.54 2681.74 2335.59 2682.1 2344.45Z" fill="#1D6E33"/>
<path d="M2529.99 2300.46L2530.31 2465.32L2529.63 2451.26C2529.6 2450.76 2529.39 2450.29 2529.03 2449.94C2528.66 2449.59 2528.18 2449.4 2527.68 2449.4H2484.28C2484.09 2449.4 2483.91 2449.44 2483.73 2449.51C2483.56 2449.59 2483.4 2449.7 2483.27 2449.84C2483.14 2449.98 2483.04 2450.15 2482.98 2450.33C2482.91 2450.51 2482.88 2450.7 2482.9 2450.9C2483.03 2453.14 2482.75 2455.21 2482.05 2457.09L2481.79 2328.58L2529.99 2300.46Z" fill="#C1964A"/>
<path d="M2481.79 2328.58L2482.05 2457.09L2481.03 2999.25C2481.03 2999.51 2480.97 2999.77 2480.84 3000C2480.71 3000.23 2480.52 3000.42 2480.3 3000.56C2480.07 3000.69 2479.81 3000.76 2479.55 3000.77C2479.28 3000.77 2479.02 3000.7 2478.8 3000.58L2219.46 2860.47C2219.01 2860.22 2218.62 2859.89 2218.3 2859.49C2217.99 2859.09 2217.75 2858.63 2217.62 2858.14C2217.49 2857.65 2217.46 2857.13 2217.53 2856.63C2217.6 2856.13 2217.78 2855.64 2218.04 2855.21L2330.2 2673.4L2425.36 2548.06C2425.64 2547.71 2425.81 2547.28 2425.86 2546.82C2425.91 2546.37 2425.83 2545.92 2425.64 2545.51C2425.44 2545.1 2425.13 2544.75 2424.75 2544.51C2424.36 2544.27 2423.92 2544.14 2423.47 2544.13C2402.11 2543.74 2381.09 2545.69 2362.76 2545.89C2328.08 2546.28 2292.61 2546.38 2256.34 2546.2C2255.68 2546.2 2252.46 2546.32 2246.67 2546.56C2242.92 2546.71 2239.71 2546.57 2237.05 2546.14L2183.02 2543.65C2182.34 2543.62 2181.65 2543.78 2181.05 2544.12C2180.45 2544.46 2179.96 2544.96 2179.63 2545.57C2172.93 2557.91 2163.11 2575.43 2150.15 2598.13C2130.49 2632.53 2105.04 2671.85 2084.84 2708.4C2065.15 2743.95 2042.01 2779.82 2018.25 2821.74C2004.78 2845.53 1987.13 2872.07 1971.8 2899.14C1949.96 2937.72 1927.84 2973.82 1895.43 3027.16C1875.74 3059.5 1854.44 3099.81 1833.17 3132.7C1825.13 3145.12 1818.4 3159.04 1809.63 3171.8C1809.5 3171.99 1809.32 3172.14 1809.12 3172.25C1808.91 3172.36 1808.68 3172.41 1808.45 3172.41C1808.22 3172.41 1807.99 3172.35 1807.79 3172.24C1807.58 3172.12 1807.41 3171.96 1807.28 3171.77L1649.72 2929.04C1649.52 2928.74 1649.39 2928.4 1649.32 2928.04C1649.26 2927.69 1649.27 2927.32 1649.36 2926.97C1649.44 2926.61 1649.6 2926.28 1649.82 2925.99C1650.03 2925.7 1650.31 2925.46 1650.63 2925.27L1818.29 2828.42C1850.18 2813.39 1882.66 2799.21 1915.74 2785.87C1925.44 2781.97 1934.8 2776.94 1944.53 2772.83C1946.06 2772.19 1948.36 2770.87 1951.44 2768.87C1953.55 2767.53 1955.87 2766.22 1958.39 2764.94L2007.87 2742.88C2008.09 2742.78 2008.29 2742.62 2008.43 2742.41C2008.57 2742.21 2008.65 2741.97 2008.66 2741.72C2008.67 2741.48 2008.61 2741.23 2008.49 2741.02C2008.37 2740.8 2008.2 2740.62 2007.98 2740.5C1957.72 2711.8 1905.38 2680.73 1850.96 2647.29C1832.4 2635.87 1809.32 2619.12 1787.6 2605.15C1764.4 2590.23 1745.04 2577.1 1729.52 2565.77C1687.17 2534.82 1639.63 2498.61 1586.93 2457.12C1580.91 2452.37 1576.28 2448.33 1573.04 2445.01C1572.81 2444.79 1572.66 2444.5 1572.61 2444.19C1572.56 2443.87 1572.61 2443.55 1572.76 2443.27C1572.9 2442.98 1573.13 2442.74 1573.41 2442.59C1573.69 2442.44 1574.02 2442.37 1574.34 2442.41C1574.73 2442.47 1575.54 2442.71 1576.77 2443.15C1635.21 2464.02 1694.1 2480.39 1753.42 2492.25C1811.85 2503.93 1864.55 2513.28 1911.52 2520.31C1916.48 2521.05 1920.38 2521.29 1923.2 2521.05C1942.93 2519.31 1962.68 2516.49 1982.47 2512.56C2022.65 2504.59 2061.15 2495.85 2097.96 2486.37C2120.27 2480.62 2148.09 2471.96 2181.41 2460.4C2223.24 2445.9 2250.69 2436.12 2263.76 2431.07C2290.8 2420.64 2322.55 2406.95 2359 2389.99C2388.51 2376.28 2429.44 2355.81 2481.79 2328.58Z" fill="#04A03C"/>
<path d="M2530.31 2465.32L2530.16 3079.13L2529.66 3081.79C2529.6 3082.09 2529.48 3082.36 2529.3 3082.6C2529.11 3082.84 2528.87 3083.03 2528.6 3083.15C2528.32 3083.27 2528.02 3083.32 2527.71 3083.3C2527.41 3083.28 2527.11 3083.19 2526.85 3083.03C2513.5 3074.87 2499.15 3066.83 2483.8 3058.9C2455.76 3044.42 2425.81 3027.52 2393.96 3008.21C2383.04 3001.59 2355.07 2986.89 2310.03 2964.11C2305.24 2961.7 2302.41 2960.16 2301.55 2959.5C2298 2956.88 2295.28 2955.14 2293.37 2954.27C2279.57 2947.85 2267.23 2938.54 2253.37 2931.98C2244.85 2927.94 2235.64 2923.01 2225.74 2917.19C2207.27 2906.32 2188.6 2895.66 2169.7 2885.19L2330.2 2673.41L2218.04 2855.21C2217.78 2855.64 2217.6 2856.13 2217.53 2856.63C2217.46 2857.14 2217.49 2857.65 2217.62 2858.14C2217.75 2858.63 2217.99 2859.09 2218.3 2859.49C2218.62 2859.89 2219.01 2860.23 2219.46 2860.47L2478.79 3000.58C2479.02 3000.71 2479.28 3000.77 2479.55 3000.77C2479.81 3000.77 2480.07 3000.69 2480.3 3000.56C2480.52 3000.42 2480.71 3000.23 2480.84 3000C2480.97 2999.77 2481.03 2999.51 2481.03 2999.25L2482.05 2457.09C2482.75 2455.21 2483.03 2453.14 2482.9 2450.9C2482.88 2450.7 2482.91 2450.51 2482.98 2450.33C2483.04 2450.15 2483.14 2449.98 2483.27 2449.84C2483.4 2449.7 2483.56 2449.59 2483.73 2449.51C2483.91 2449.44 2484.09 2449.4 2484.28 2449.4H2527.67C2528.18 2449.4 2528.66 2449.59 2529.03 2449.94C2529.39 2450.29 2529.6 2450.76 2529.63 2451.27L2530.31 2465.32Z" fill="#DDB861"/>
<path d="M1059.9 2539.1C1104.16 2542.21 1148.53 2545.92 1193 2550.24C1221.13 2552.98 1241.23 2554.79 1253.3 2555.67C1279.36 2557.57 1305.95 2558.64 1331.77 2562.58C1337.64 2563.48 1343.67 2564.15 1349.88 2564.58C1355.23 2574.9 1361.62 2585.59 1369.06 2596.66C1373.17 2602.81 1376.64 2609.36 1379.46 2616.32L1057.84 2588.57C1048.64 2570.95 1046.81 2555.53 1059.9 2539.1Z" fill="#DDB861"/>
<path d="M2237.05 2546.14L1812.2 3264.21C1805.17 3252.54 1797.69 3241.27 1789.77 3230.41C1780.53 3217.76 1774.34 3208.55 1771.21 3202.77C1763.95 3189.33 1758.58 3179.52 1755.09 3173.36C1750.55 3165.34 1737.62 3145.79 1716.31 3114.69C1709.63 3104.96 1705.05 3098.07 1702.56 3094.04C1691.19 3075.6 1684 3066.4 1673.96 3048.44C1668.84 3039.25 1660.02 3028.16 1653.99 3015.65C1653.16 3013.9 1652.19 3012.23 1651.08 3010.65C1641.5 2996.96 1634.17 2985.81 1629.1 2977.21C1626.52 2972.82 1620.74 2964.31 1611.79 2951.7C1605.77 2943.19 1600.48 2934.37 1595.92 2925.22C1665.41 2895.27 1733.63 2865.18 1800.58 2834.96C1806.2 2832.43 1812.1 2830.25 1818.28 2828.42L1650.63 2925.28C1650.31 2925.46 1650.03 2925.7 1649.81 2925.99C1649.59 2926.28 1649.44 2926.62 1649.35 2926.97C1649.27 2927.32 1649.26 2927.69 1649.32 2928.04C1649.38 2928.4 1649.52 2928.74 1649.72 2929.04L1807.28 3171.77C1807.41 3171.97 1807.58 3172.13 1807.78 3172.24C1807.99 3172.35 1808.21 3172.41 1808.45 3172.41C1808.68 3172.41 1808.91 3172.36 1809.11 3172.25C1809.32 3172.15 1809.5 3171.99 1809.63 3171.8C1818.4 3159.04 1825.13 3145.13 1833.16 3132.71C1854.44 3099.81 1875.74 3059.5 1895.42 3027.17C1927.84 2973.82 1949.96 2937.72 1971.8 2899.14C1987.13 2872.07 2004.78 2845.53 2018.25 2821.74C2042.01 2779.82 2065.15 2743.95 2084.84 2708.4C2105.03 2671.85 2130.49 2632.53 2150.15 2598.13C2163.11 2575.43 2172.93 2557.91 2179.63 2545.58C2179.96 2544.97 2180.45 2544.46 2181.05 2544.12C2181.65 2543.78 2182.33 2543.62 2183.02 2543.65L2237.05 2546.14Z" fill="#DDB861"/>
<path d="M2330.2 2673.4L2169.7 2885.19L2112.87 2961.06C2108.98 2966.62 2105.32 2971.73 2101.86 2976.39C2070.13 3019.07 2037.58 3062.24 2004.22 3105.92C1984.51 3131.73 1971.58 3148.91 1965.43 3157.46C1933.5 3201.7 1905.41 3236.63 1870.73 3283.79C1855.28 3304.81 1836.57 3329.74 1814.58 3358.55C1813.99 3359.32 1813.23 3359.64 1812.29 3359.51C1812 3359.47 1811.71 3359.21 1811.41 3358.72L1812.2 3264.21L2237.05 2546.14C2239.71 2546.57 2242.91 2546.71 2246.67 2546.56C2252.46 2546.32 2255.68 2546.2 2256.34 2546.2C2292.61 2546.38 2328.08 2546.28 2362.76 2545.88C2381.09 2545.69 2402.11 2543.73 2423.46 2544.13C2423.92 2544.13 2424.36 2544.27 2424.74 2544.51C2425.13 2544.75 2425.44 2545.1 2425.63 2545.51C2425.83 2545.92 2425.91 2546.37 2425.86 2546.82C2425.81 2547.28 2425.64 2547.71 2425.36 2548.06L2330.2 2673.4Z" fill="#1D6E33"/>
<path d="M1057.84 2588.57L1379.47 2616.32L1461.07 2747.89L1478.19 2785.93C1478.36 2786.3 1478.42 2786.71 1478.37 2787.11C1478.31 2787.51 1478.15 2787.89 1477.9 2788.21C1477.64 2788.52 1477.3 2788.76 1476.92 2788.89C1476.54 2789.03 1476.12 2789.05 1475.73 2788.96C1449.18 2783.25 1423.65 2778.9 1399.15 2775.92C1382.72 2773.94 1366.74 2769.7 1350.02 2767.21C1319.1 2762.57 1291.49 2755.61 1261.22 2750.55C1249.93 2748.68 1220.91 2742.81 1174.16 2732.95C1159.73 2729.9 1142.87 2723.87 1130.48 2720.7C1125.14 2719.33 1118.44 2718.52 1110.37 2718.27C1075.67 2711.69 1037.34 2703.09 995.381 2692.47C988.837 2690.81 982.661 2689.93 976.853 2689.81C944.7 2682.57 914.008 2676 884.778 2670.1C814.908 2655.99 727.547 2638.66 622.696 2618.1C556.598 2605.13 511.517 2596.57 487.454 2592.42C487.288 2592.38 487.122 2592.29 486.973 2592.17C486.012 2591.35 485.964 2590.17 486.832 2588.6C487.718 2588.98 488.454 2589.03 489.038 2588.74C512.913 2576.69 538.928 2563.3 567.083 2548.57C569.744 2547.19 572.734 2546.58 575.711 2546.82C601.282 2548.77 624.846 2549.28 651.634 2551.83C786.904 2564.65 922.305 2576.9 1057.84 2588.57Z" fill="#1D6E33"/>
<path d="M3138.85 2594.26C3139.3 2596.54 3137.53 2598.02 3133.53 2598.7C3048.7 2613.41 2963.84 2629.39 2878.83 2644.27C2798.04 2658.41 2717.62 2674.28 2636.75 2688.96L2650.84 2589.53C2670.94 2589.93 2691.04 2588.91 2711.15 2586.48C2734.27 2583.69 2745.88 2582.29 2746 2582.29C2764.58 2581.05 2776.18 2578.44 2792.61 2577.77C2811.51 2576.97 2835.33 2572.28 2856.94 2570.5C2858.67 2570.35 2895.93 2566.73 2968.7 2559.66C2972.55 2559.28 2986.89 2557.43 3011.73 2554.09C3026 2552.18 3040.44 2550.98 3055.03 2550.47L3138.85 2594.26Z" fill="#C1964A"/>
<path d="M1803.35 2670.27L1493.61 2848.65C1481.18 2837.46 1472.28 2824.02 1466.9 2808.31L1756.08 2639.69L1803.35 2670.27Z" fill="#DDB861"/>
<path d="M1803.35 2670.27C1814.59 2677.51 1825.87 2684.87 1837.21 2692.36C1876.27 2718.18 1917.04 2741.24 1958.39 2764.94C1955.86 2766.23 1953.54 2767.54 1951.43 2768.88C1948.36 2770.87 1946.06 2772.19 1944.53 2772.84C1934.8 2776.94 1925.44 2781.97 1915.73 2785.88C1882.66 2799.21 1850.17 2813.39 1818.28 2828.42C1812.1 2830.25 1806.2 2832.43 1800.58 2834.95C1733.63 2865.18 1665.41 2895.27 1595.92 2925.22L1510.24 2963.21C1413.85 3005.72 1318.28 3047.67 1223.52 3089.06C1177.44 3109.2 1132.91 3130.61 1087.77 3148.35C1078.17 3152.12 1063.01 3158.82 1042.31 3168.43C1041.44 3168.83 1040.71 3168.87 1040.13 3168.55C1039.49 3168.17 1039.05 3167.54 1038.83 3166.65C1057.33 3141.5 1072.43 3107.22 1083.18 3086.91C1084.59 3084.27 1086.7 3082.07 1089.29 3080.57L1493.6 2848.65L1803.35 2670.27Z" fill="#1D6E33"/>
<path d="M1110.37 2718.27L1128.53 3000.49C1128.54 3000.74 1128.62 3000.98 1128.76 3001.19C1128.89 3001.39 1129.07 3001.56 1129.29 3001.68C1129.51 3001.8 1129.75 3001.86 1130 3001.86C1130.25 3001.86 1130.49 3001.8 1130.71 3001.68L1466.9 2808.31C1472.28 2824.02 1481.18 2837.46 1493.6 2848.65L1089.29 3080.57C1086.71 3082.07 1084.59 3084.27 1083.18 3086.91C1072.43 3107.22 1057.33 3141.5 1038.83 3166.65L976.852 2689.81C982.66 2689.93 988.836 2690.81 995.38 2692.47C1037.34 2703.09 1075.67 2711.69 1110.37 2718.27Z" fill="#C1964A"/>
<path d="M2169.7 2885.19C2188.6 2895.66 2207.28 2906.32 2225.74 2917.18C2235.64 2923.01 2244.85 2927.94 2253.37 2931.98C2267.23 2938.54 2279.57 2947.85 2293.37 2954.27C2295.28 2955.14 2298 2956.88 2301.55 2959.5C2302.41 2960.16 2305.24 2961.7 2310.03 2964.11C2355.07 2986.89 2383.04 3001.59 2393.96 3008.21C2425.81 3027.52 2455.76 3044.42 2483.8 3058.9C2499.15 3066.82 2513.5 3074.87 2526.86 3083.03C2527.12 3083.19 2527.41 3083.28 2527.71 3083.3C2528.02 3083.32 2528.32 3083.27 2528.6 3083.15C2528.87 3083.02 2529.11 3082.84 2529.3 3082.6C2529.48 3082.36 2529.61 3082.08 2529.66 3081.79L2530.17 3079.13C2531.05 3083.37 2532 3086.39 2533.02 3088.18C2545.37 3110.23 2557.31 3132.48 2568.83 3154.94C2570.42 3158.01 2571.63 3161.6 2572.48 3165.69C2551.19 3156.58 2530.05 3147.53 2509.06 3138.53C2487.42 3129.25 2464.09 3117.91 2442.02 3107.98C2344.71 3064.33 2260.19 3026.35 2188.45 2994.07C2179.91 2990.24 2167.3 2984.78 2150.61 2977.69C2138.01 2972.33 2125.43 2966.79 2112.87 2961.06L2169.7 2885.19Z" fill="#C1964A"/>
<path d="M1595.92 2925.22C1600.48 2934.36 1605.77 2943.19 1611.79 2951.7C1620.75 2964.31 1626.52 2972.82 1629.1 2977.21C1634.17 2985.81 1641.5 2996.96 1651.08 3010.65C1652.19 3012.23 1653.17 3013.9 1653.99 3015.65C1660.02 3028.16 1668.85 3039.24 1673.97 3048.44C1684.01 3066.4 1691.19 3075.59 1702.56 3094.04C1705.05 3098.07 1709.64 3104.96 1716.31 3114.69C1737.62 3145.78 1750.55 3165.34 1755.09 3173.35C1758.58 3179.52 1763.96 3189.33 1771.22 3202.77C1774.35 3208.54 1780.53 3217.76 1789.77 3230.41C1797.69 3241.27 1805.17 3252.54 1812.21 3264.21L1811.41 3358.72L1510.24 2963.21L1595.92 2925.22Z" fill="#C1964A"/>
<path d="M2809.78 3642.98C2845.54 3610.54 2906.58 3610.11 2943.61 3640.83C2974.81 3666.71 2979.87 3711.38 2959.51 3745.3C2937.58 3781.76 2889.1 3791.6 2848.79 3785.15C2829.46 3782.06 2812.06 3774.41 2796.6 3762.21C2775.67 3745.69 2764.61 3718.06 2760.08 3690.84C2753.1 3648.71 2758.85 3610.36 2777.31 3575.77C2789.64 3552.63 2809.22 3535.8 2831.87 3527.54C2874.76 3511.91 2916.99 3513.65 2958.57 3532.77C2958.96 3532.95 2959.3 3533.2 2959.58 3533.51C2959.86 3533.82 2960.08 3534.19 2960.22 3534.59C2960.36 3534.99 2960.41 3535.41 2960.38 3535.83C2960.35 3536.25 2960.24 3536.67 2960.04 3537.04L2942.45 3571.16C2942.29 3571.47 2942.07 3571.75 2941.8 3571.98C2941.53 3572.21 2941.21 3572.38 2940.88 3572.48C2940.54 3572.59 2940.18 3572.63 2939.83 3572.59C2939.48 3572.56 2939.14 3572.46 2938.83 3572.29C2908 3556.03 2862.2 3550.71 2834.82 3577.1C2816.58 3594.68 2807.81 3616.46 2808.51 3642.44C2808.52 3642.59 2808.56 3642.73 2808.64 3642.85C2808.73 3642.97 2808.84 3643.06 2808.98 3643.12C2809.11 3643.17 2809.26 3643.19 2809.4 3643.17C2809.54 3643.14 2809.67 3643.08 2809.78 3642.98ZM2816.23 3702.67C2816.15 3732.99 2841.01 3747.87 2868.9 3747.93C2896.82 3747.98 2921.72 3733.22 2921.8 3702.89C2921.86 3672.57 2897.02 3657.69 2869.1 3657.63C2841.18 3657.58 2816.29 3672.34 2816.23 3702.67Z" fill="white"/>
<path d="M1101.8 3579.3C1101.74 3579.43 1101.66 3579.53 1101.56 3579.62C1101.46 3579.71 1101.34 3579.78 1101.21 3579.81C1101.08 3579.85 1100.94 3579.86 1100.81 3579.84C1100.68 3579.82 1100.55 3579.77 1100.44 3579.7C1078.58 3565.99 1054.39 3559.13 1027.85 3559.13C1009.35 3559.16 986.186 3562.39 977.332 3577.97C968.365 3593.76 975.664 3610.22 991.787 3617.66C1001.84 3622.28 1010.41 3625.45 1017.5 3627.17C1038.26 3632.14 1055.98 3636.6 1070.65 3640.55C1099.65 3648.32 1125.9 3665.69 1129.24 3697.86C1134.3 3746.76 1102.87 3775.56 1057.87 3783.42C1008.87 3791.97 956.768 3785.26 917.448 3754.66C916.977 3754.28 916.644 3753.77 916.5 3753.19C916.357 3752.61 916.412 3752 916.656 3751.46L932.582 3715.96C932.675 3715.76 932.812 3715.58 932.983 3715.43C933.153 3715.29 933.353 3715.18 933.567 3715.13C933.782 3715.07 934.005 3715.06 934.221 3715.1C934.438 3715.14 934.641 3715.23 934.817 3715.37C965.555 3738.15 1000.41 3747.54 1039.39 3743.54C1056.62 3741.79 1078.29 3734.52 1078.35 3713.64C1078.4 3692.88 1057.19 3683.12 1040.24 3678.65C1027.59 3675.31 1012.3 3671.48 994.361 3667.16C964.858 3660.04 931.45 3647.48 924.52 3613.84C914.591 3565.56 944.349 3531.41 989.977 3521.74C1035.46 3512.1 1077.89 3518.35 1117.27 3540.49C1117.69 3540.73 1118.01 3541.12 1118.16 3541.58C1118.31 3542.04 1118.29 3542.54 1118.09 3542.98L1101.8 3579.3Z" fill="white"/>
<path d="M3108.53 3517.7C3185.75 3517.05 3221.42 3582.02 3222.04 3651.13C3222.64 3720.23 3188.1 3785.83 3110.88 3786.48C3033.65 3787.16 2997.98 3722.19 2997.39 3653.08C2996.79 3583.97 3031.3 3518.38 3108.53 3517.7ZM3048.73 3652.68C3048.86 3665.9 3050.28 3678.73 3053 3691.15C3059.19 3719.53 3079.82 3743.17 3110.56 3742.89C3141.31 3742.58 3161.48 3718.51 3167.11 3690.02C3169.56 3677.54 3170.72 3664.69 3170.59 3651.47C3170.46 3638.25 3169.04 3625.42 3166.35 3613C3160.15 3584.62 3139.5 3560.95 3108.75 3561.26C3078.01 3561.57 3057.86 3585.64 3052.24 3614.13C3049.77 3626.61 3048.6 3639.46 3048.73 3652.68Z" fill="white"/>
<path d="M902.287 3783.31H851.2C850.713 3783.31 850.237 3783.17 849.829 3782.91C849.422 3782.64 849.102 3782.26 848.908 3781.81L823.704 3725.61C823.344 3724.8 822.754 3724.11 822.006 3723.63C821.258 3723.15 820.384 3722.89 819.49 3722.89H692.282C691.756 3722.89 691.243 3723.05 690.81 3723.34C690.376 3723.63 690.041 3724.05 689.849 3724.53L666.965 3781.42C666.722 3782.02 666.307 3782.53 665.773 3782.9C665.239 3783.26 664.609 3783.45 663.966 3783.45H615.171C614.925 3783.46 614.682 3783.4 614.466 3783.28C614.249 3783.17 614.064 3783 613.929 3782.79C613.794 3782.59 613.713 3782.35 613.693 3782.11C613.672 3781.86 613.713 3781.61 613.813 3781.39L729.734 3522.76C729.969 3522.23 730.35 3521.78 730.832 3521.46C731.314 3521.15 731.876 3520.98 732.45 3520.98H782.688C783.178 3520.98 783.657 3521.12 784.069 3521.38C784.48 3521.65 784.806 3522.03 785.007 3522.48C802.885 3562.05 818.047 3599.13 836.123 3636.56C852.228 3669.9 866.918 3701.94 880.194 3732.68C887.285 3749.09 895.036 3765.32 903.446 3781.39C903.555 3781.59 903.61 3781.81 903.605 3782.04C903.6 3782.27 903.535 3782.49 903.418 3782.68C903.301 3782.88 903.135 3783.04 902.936 3783.15C902.738 3783.26 902.514 3783.32 902.287 3783.31ZM709.82 3681.9C709.75 3682.07 709.723 3682.25 709.74 3682.43C709.758 3682.61 709.82 3682.79 709.92 3682.94C710.021 3683.09 710.158 3683.21 710.318 3683.3C710.478 3683.39 710.657 3683.43 710.838 3683.43L804.299 3682.78C804.485 3682.78 804.667 3682.74 804.831 3682.65C804.994 3682.56 805.133 3682.44 805.235 3682.28C805.336 3682.13 805.397 3681.95 805.412 3681.76C805.426 3681.58 805.394 3681.39 805.318 3681.22L757.823 3573.87C757.74 3573.67 757.598 3573.5 757.417 3573.38C757.236 3573.26 757.023 3573.19 756.805 3573.19C756.587 3573.19 756.374 3573.26 756.193 3573.38C756.012 3573.5 755.87 3573.67 755.787 3573.87L709.82 3681.9Z" fill="white"/>
<path d="M1658.74 3783.31L1569.7 3673.84C1569.56 3673.67 1569.39 3673.54 1569.2 3673.44C1569.01 3673.34 1568.8 3673.29 1568.58 3673.28C1568.37 3673.27 1568.15 3673.31 1567.96 3673.39C1567.76 3673.47 1567.58 3673.6 1567.43 3673.75L1527.32 3715.17C1527.06 3715.44 1526.9 3715.8 1526.9 3716.19V3781.87C1526.9 3782.27 1526.74 3782.65 1526.46 3782.93C1526.18 3783.21 1525.79 3783.37 1525.4 3783.37H1478.21C1477.82 3783.37 1477.44 3783.21 1477.15 3782.93C1476.87 3782.65 1476.71 3782.27 1476.71 3781.87V3522.81C1476.71 3522.42 1476.87 3522.03 1477.15 3521.75C1477.44 3521.47 1477.82 3521.31 1478.21 3521.31H1525.11C1525.51 3521.31 1525.89 3521.47 1526.17 3521.75C1526.46 3522.03 1526.61 3522.42 1526.61 3522.81V3649.26C1526.61 3649.56 1526.7 3649.85 1526.87 3650.1C1527.04 3650.34 1527.27 3650.54 1527.55 3650.65C1527.82 3650.76 1528.13 3650.79 1528.42 3650.73C1528.71 3650.67 1528.98 3650.52 1529.19 3650.3L1654.08 3521.48C1654.22 3521.34 1654.38 3521.23 1654.57 3521.15C1654.75 3521.07 1654.95 3521.03 1655.15 3521.03H1711.13C1711.43 3521.03 1711.72 3521.12 1711.96 3521.28C1712.21 3521.44 1712.4 3521.68 1712.51 3521.95C1712.63 3522.22 1712.66 3522.52 1712.61 3522.81C1712.55 3523.1 1712.41 3523.37 1712.21 3523.58L1602.99 3636.22C1602.73 3636.48 1602.58 3636.83 1602.56 3637.2C1602.54 3637.58 1602.67 3637.94 1602.9 3638.23L1719.39 3781.44C1719.57 3781.66 1719.68 3781.93 1719.71 3782.21C1719.74 3782.49 1719.69 3782.77 1719.57 3783.02C1719.45 3783.28 1719.26 3783.49 1719.02 3783.64C1718.79 3783.79 1718.51 3783.87 1718.23 3783.88H1659.9C1659.68 3783.87 1659.46 3783.82 1659.26 3783.72C1659.06 3783.63 1658.88 3783.49 1658.74 3783.31Z" fill="white"/>
<path d="M514.781 3521.46C551.838 3521.53 588.809 3521.61 625.696 3521.68C625.958 3521.68 626.21 3521.79 626.396 3521.97C626.582 3522.16 626.686 3522.41 626.686 3522.67V3562.3C626.686 3562.65 626.549 3562.98 626.305 3563.22C626.061 3563.47 625.73 3563.61 625.385 3563.61H540.721C540.458 3563.61 540.206 3563.71 540.021 3563.9C539.835 3564.08 539.731 3564.33 539.731 3564.6V3782.01C539.731 3782.41 539.573 3782.79 539.292 3783.07C539.01 3783.35 538.629 3783.51 538.231 3783.51C534.102 3783.45 526.096 3783.41 514.216 3783.37C502.354 3783.35 494.358 3783.36 490.228 3783.4C489.83 3783.4 489.449 3783.24 489.168 3782.96C488.887 3782.68 488.729 3782.3 488.729 3781.9L489.634 3564.48C489.634 3564.22 489.53 3563.97 489.344 3563.78C489.158 3563.6 488.906 3563.49 488.644 3563.49L404.008 3563.13C403.837 3563.13 403.668 3563.09 403.51 3563.03C403.352 3562.96 403.209 3562.86 403.088 3562.74C402.967 3562.62 402.871 3562.48 402.806 3562.32C402.741 3562.16 402.707 3561.99 402.707 3561.82L402.877 3522.19C402.877 3521.93 402.981 3521.68 403.167 3521.49C403.352 3521.31 403.604 3521.2 403.867 3521.2C440.753 3521.3 477.725 3521.38 514.781 3521.46Z" fill="white"/>
<path d="M1294.04 3627.62C1315.05 3627.6 1336.51 3627.76 1358.42 3628.1C1358.63 3628.11 1358.84 3628.07 1359.03 3627.99C1359.23 3627.91 1359.41 3627.8 1359.56 3627.65C1359.71 3627.5 1359.83 3627.32 1359.91 3627.13C1359.99 3626.94 1360.03 3626.73 1360.03 3626.52V3522.42C1360.03 3522.29 1360.06 3522.15 1360.11 3522.03C1360.16 3521.91 1360.23 3521.79 1360.33 3521.7C1360.42 3521.61 1360.54 3521.53 1360.66 3521.48C1360.78 3521.43 1360.92 3521.4 1361.05 3521.4H1408.37C1408.88 3521.4 1409.36 3521.6 1409.71 3521.96C1410.07 3522.31 1410.27 3522.79 1410.27 3523.3V3782.01C1410.27 3782.34 1410.14 3782.64 1409.91 3782.87C1409.69 3783.1 1409.38 3783.23 1409.05 3783.23H1361.47C1361.11 3783.23 1360.75 3783.09 1360.49 3782.83C1360.23 3782.58 1360.09 3782.23 1360.09 3781.87V3670.84C1360.09 3670.7 1360.06 3670.55 1360 3670.42C1359.94 3670.28 1359.86 3670.16 1359.75 3670.05C1359.65 3669.95 1359.52 3669.87 1359.39 3669.82C1359.25 3669.76 1359.1 3669.74 1358.96 3669.74C1333.2 3669.91 1311.56 3670 1294.04 3670.02C1276.52 3670.02 1254.88 3669.95 1229.12 3669.8C1228.83 3669.8 1228.54 3669.91 1228.34 3670.12C1228.13 3670.33 1228.01 3670.61 1228.01 3670.9L1228.1 3781.93C1228.1 3782.29 1227.95 3782.63 1227.69 3782.89C1227.43 3783.14 1227.08 3783.29 1226.71 3783.29L1179.13 3783.34C1178.97 3783.34 1178.82 3783.31 1178.67 3783.25C1178.52 3783.19 1178.39 3783.1 1178.27 3782.99C1178.16 3782.87 1178.07 3782.74 1178.01 3782.59C1177.95 3782.44 1177.92 3782.29 1177.92 3782.13L1177.69 3523.41C1177.69 3523.16 1177.74 3522.92 1177.84 3522.69C1177.93 3522.46 1178.07 3522.25 1178.25 3522.07C1178.42 3521.89 1178.63 3521.75 1178.86 3521.66C1179.09 3521.56 1179.34 3521.52 1179.59 3521.52L1226.91 3521.46C1227.04 3521.46 1227.18 3521.49 1227.3 3521.54C1227.42 3521.59 1227.54 3521.66 1227.63 3521.76C1227.73 3521.85 1227.8 3521.96 1227.85 3522.09C1227.9 3522.21 1227.93 3522.34 1227.93 3522.48L1228.01 3626.57C1228.01 3626.79 1228.05 3627 1228.13 3627.2C1228.21 3627.39 1228.33 3627.57 1228.48 3627.72C1228.63 3627.87 1228.81 3627.99 1229.01 3628.07C1229.2 3628.15 1229.41 3628.19 1229.63 3628.19C1251.56 3627.81 1273.03 3627.62 1294.04 3627.62Z" fill="white"/>
<path d="M1955.2 3742.75V3782.07C1955.2 3782.42 1955.06 3782.76 1954.81 3783.01C1954.56 3783.26 1954.22 3783.4 1953.87 3783.4H1755.54C1755.19 3783.4 1754.85 3783.26 1754.6 3783.01C1754.35 3782.76 1754.21 3782.42 1754.21 3782.07V3522.56C1754.21 3522.21 1754.35 3521.87 1754.6 3521.62C1754.85 3521.37 1755.19 3521.23 1755.54 3521.23H1948.61C1948.96 3521.23 1949.3 3521.37 1949.55 3521.62C1949.79 3521.87 1949.93 3522.21 1949.93 3522.56V3561.71C1949.93 3562.06 1949.79 3562.4 1949.55 3562.65C1949.3 3562.9 1948.96 3563.04 1948.61 3563.04H1805.84C1805.49 3563.04 1805.15 3563.18 1804.9 3563.43C1804.65 3563.68 1804.51 3564.02 1804.51 3564.37V3628.16C1804.51 3628.33 1804.54 3628.5 1804.61 3628.67C1804.68 3628.83 1804.78 3628.97 1804.9 3629.1C1805.02 3629.22 1805.17 3629.32 1805.33 3629.38C1805.49 3629.45 1805.66 3629.49 1805.84 3629.49H1932.23C1932.58 3629.49 1932.92 3629.63 1933.17 3629.88C1933.42 3630.12 1933.56 3630.46 1933.56 3630.82V3668.61C1933.56 3668.96 1933.42 3669.3 1933.17 3669.55C1932.92 3669.8 1932.58 3669.94 1932.23 3669.94H1805.9C1805.72 3669.94 1805.55 3669.97 1805.39 3670.04C1805.23 3670.1 1805.08 3670.2 1804.96 3670.33C1804.83 3670.45 1804.73 3670.6 1804.67 3670.76C1804.6 3670.92 1804.57 3671.09 1804.57 3671.27V3740.09C1804.57 3740.26 1804.6 3740.44 1804.67 3740.6C1804.73 3740.76 1804.83 3740.91 1804.96 3741.03C1805.08 3741.15 1805.23 3741.25 1805.39 3741.32C1805.55 3741.38 1805.72 3741.42 1805.9 3741.42H1953.87C1954.22 3741.42 1954.56 3741.56 1954.81 3741.81C1955.06 3742.06 1955.2 3742.4 1955.2 3742.75Z" fill="white"/>
<path d="M2104.78 3667.05C2090.24 3647.82 2074.37 3628.56 2058.36 3608.61C2058.27 3608.5 2058.15 3608.41 2058.01 3608.37C2057.87 3608.33 2057.72 3608.34 2057.59 3608.39C2057.45 3608.44 2057.33 3608.53 2057.25 3608.65C2057.17 3608.78 2057.14 3608.92 2057.14 3609.07V3781.82C2057.14 3782.18 2057 3782.52 2056.75 3782.78C2056.49 3783.03 2056.15 3783.17 2055.79 3783.17H2008.89C2008.46 3783.17 2008.05 3783 2007.75 3782.7C2007.44 3782.4 2007.27 3781.99 2007.27 3781.56V3522.53C2007.27 3522.11 2007.44 3521.7 2007.75 3521.39C2008.05 3521.09 2008.46 3520.92 2008.89 3520.92H2048.01C2048.64 3520.92 2049.26 3521.06 2049.82 3521.33C2050.39 3521.6 2050.89 3521.99 2051.29 3522.48C2089.9 3570.26 2108.6 3593.31 2127.78 3616.31C2137.49 3627.92 2143.23 3634.89 2145 3637.21C2159.54 3656.45 2175.41 3675.74 2191.42 3695.65C2191.51 3695.77 2191.63 3695.85 2191.77 3695.89C2191.9 3695.93 2192.05 3695.93 2192.18 3695.88C2192.32 3695.83 2192.44 3695.74 2192.52 3695.63C2192.6 3695.51 2192.64 3695.37 2192.64 3695.23V3522.48C2192.64 3522.12 2192.78 3521.77 2193.04 3521.52C2193.29 3521.26 2193.64 3521.12 2194 3521.12H2240.9C2241.33 3521.12 2241.74 3521.29 2242.04 3521.59C2242.34 3521.89 2242.51 3522.3 2242.51 3522.73V3781.76C2242.51 3781.97 2242.47 3782.18 2242.39 3782.38C2242.31 3782.57 2242.19 3782.75 2242.04 3782.9C2241.89 3783.05 2241.71 3783.17 2241.52 3783.25C2241.32 3783.33 2241.11 3783.37 2240.9 3783.37H2201.78C2201.15 3783.37 2200.53 3783.23 2199.96 3782.96C2199.39 3782.69 2198.89 3782.3 2198.5 3781.82C2159.88 3734.04 2141.19 3710.98 2122.01 3687.99C2112.29 3676.37 2106.55 3669.39 2104.78 3667.05Z" fill="white"/>
<path d="M2390.14 3783.23C2378.26 3783.25 2370.26 3783.28 2366.13 3783.31C2365.73 3783.31 2365.36 3783.16 2365.08 3782.88C2364.8 3782.61 2364.63 3782.23 2364.63 3781.84L2364.94 3564.48C2364.94 3564.22 2364.83 3563.97 2364.65 3563.78C2364.46 3563.6 2364.21 3563.49 2363.95 3563.49L2279.31 3563.38C2279.14 3563.38 2278.97 3563.35 2278.82 3563.28C2278.66 3563.22 2278.51 3563.12 2278.39 3563C2278.27 3562.88 2278.18 3562.73 2278.11 3562.58C2278.05 3562.42 2278.01 3562.25 2278.01 3562.08L2278.07 3522.48C2278.07 3522.21 2278.17 3521.96 2278.36 3521.78C2278.54 3521.59 2278.8 3521.49 2279.06 3521.49C2315.93 3521.47 2352.88 3521.44 2389.92 3521.4C2426.95 3521.36 2463.92 3521.34 2500.8 3521.32C2501.07 3521.32 2501.32 3521.42 2501.5 3521.61C2501.69 3521.79 2501.79 3522.04 2501.79 3522.31L2501.91 3561.91C2501.91 3562.25 2501.77 3562.58 2501.52 3562.83C2501.28 3563.07 2500.95 3563.21 2500.6 3563.21L2415.97 3563.46C2415.71 3563.47 2415.47 3563.58 2415.29 3563.76C2415.11 3563.95 2415.01 3564.2 2415.01 3564.45L2415.63 3781.79C2415.63 3781.98 2415.59 3782.18 2415.52 3782.36C2415.44 3782.54 2415.33 3782.71 2415.19 3782.85C2415.05 3782.98 2414.89 3783.1 2414.7 3783.17C2414.52 3783.25 2414.33 3783.28 2414.13 3783.28C2410 3783.25 2402 3783.23 2390.14 3783.23Z" fill="white"/>
<path d="M2651.66 3628.69C2655.17 3629.56 2661.1 3630.93 2669.45 3632.79C2701.56 3639.98 2725.32 3665.58 2726.28 3699.52C2727.5 3742.8 2699.72 3773.95 2658.31 3782.55C2611.49 3792.28 2557.66 3785.12 2519.44 3755.59C2519.07 3755.29 2518.81 3754.88 2518.72 3754.41C2518.62 3753.95 2518.69 3753.46 2518.91 3753.04L2537.83 3717.4C2537.96 3717.16 2538.14 3716.95 2538.35 3716.78C2538.57 3716.62 2538.82 3716.5 2539.09 3716.44C2539.36 3716.38 2539.64 3716.38 2539.91 3716.44C2540.18 3716.5 2540.44 3716.61 2540.66 3716.78C2570.4 3738.77 2603.34 3747.01 2639.5 3741.5C2663.96 3737.77 2680.29 3720.63 2673.27 3694.43C2664.3 3661.14 2619.58 3666.4 2592.28 3666.85C2592.03 3666.86 2591.78 3666.81 2591.54 3666.72C2591.3 3666.62 2591.09 3666.48 2590.91 3666.31C2590.72 3666.13 2590.58 3665.92 2590.48 3665.69C2590.38 3665.46 2590.33 3665.21 2590.33 3664.96V3635.62C2590.33 3634.69 2590.65 3633.79 2591.24 3633.08C2609.21 3611.22 2627.91 3589.27 2647.33 3567.22C2648.29 3566.13 2648.89 3565.09 2649.11 3564.11C2649.16 3563.94 2649.16 3563.76 2649.12 3563.58C2649.08 3563.4 2649 3563.24 2648.88 3563.1C2648.77 3562.96 2648.62 3562.84 2648.46 3562.76C2648.29 3562.68 2648.11 3562.64 2647.93 3562.64H2531.92C2531.41 3562.64 2530.92 3562.44 2530.56 3562.09C2530.2 3561.73 2530 3561.25 2530 3560.75V3523.04C2530 3522.81 2530.04 3522.57 2530.13 3522.36C2530.22 3522.14 2530.35 3521.95 2530.52 3521.78C2530.68 3521.61 2530.88 3521.48 2531.1 3521.39C2531.31 3521.3 2531.54 3521.26 2531.78 3521.26H2712C2712.49 3521.26 2712.97 3521.46 2713.32 3521.81C2713.67 3522.17 2713.86 3522.65 2713.86 3523.15V3551.53C2713.86 3552.91 2713.37 3554.26 2712.48 3555.32C2703.28 3566.09 2695.67 3576.7 2687.1 3585.89C2673.77 3600.15 2661.67 3613.56 2650.81 3626.12C2650.64 3626.32 2650.52 3626.57 2650.47 3626.83C2650.41 3627.1 2650.43 3627.37 2650.52 3627.63C2650.6 3627.89 2650.75 3628.12 2650.95 3628.3C2651.15 3628.49 2651.39 3628.62 2651.66 3628.69Z" fill="white"/>
</svg>
